<svg width="100" height="100" viewBox="0 0 100 100" fill="none" xmlns="http://www.w3.org/2000/svg">
<rect width="100" height="100" rx="19.1" fill="white"/>
<path d="M63.5428 56.3333L50.0122 81.9913C44.2593 81.9897 38.6131 80.4416 33.6671 77.5097C28.7211 74.5779 24.658 70.3706 21.9049 65.3301C19.1517 60.2897 17.8103 54.6022 18.0216 48.8656C18.2329 43.129 19.9891 37.5551 23.1055 32.7299L37.1181 57.4913L63.5428 56.3333Z" fill="#539E55"/>
<path d="M50.7255 35.1844L79.2738 36.771C86.4658 52.8894 78.9038 71.6865 62.7505 78.8629C58.6069 80.7089 54.1564 81.7725 49.6244 82L63.4929 56.3538L50.7255 35.1844Z" fill="#F1BF45"/>
<path d="M37.3045 57.8796L23.0985 32.7344C32.7288 17.9366 52.6803 13.4711 67.5094 23.0806C72.6708 26.4262 76.7578 31.1839 79.282 36.7851L50.7609 35.1921L37.3045 57.8796Z" fill="#D44F3E"/>
<path d="M35.2557 49.8117C35.2557 51.7535 35.6389 53.6762 36.3836 55.4702C37.1283 57.2641 38.2198 58.8941 39.5958 60.2671C40.9718 61.6402 42.6053 62.7293 44.4032 63.4724C46.201 64.2155 48.1279 64.5979 50.0738 64.5979C52.0198 64.5979 53.9467 64.2155 55.7445 63.4724C57.5423 62.7293 59.1759 61.6402 60.5519 60.2671C61.9279 58.8941 63.0194 57.2641 63.7641 55.4702C64.5087 53.6762 64.892 51.7535 64.892 49.8117C64.892 45.8902 63.3308 42.1292 60.5519 39.3563C57.7729 36.5833 54.0039 35.0255 50.0738 35.0255C46.1438 35.0255 42.3748 36.5833 39.5958 39.3563C36.8169 42.1292 35.2557 45.8902 35.2557 49.8117Z" fill="white"/>
<path d="M39.1552 50.2009C39.1552 53.1937 40.3055 56.0639 42.3532 58.1801C44.4008 60.2963 47.178 61.4851 50.0738 61.4851C52.9696 61.4851 55.7468 60.2963 57.7945 58.1801C59.8421 56.0639 60.9925 53.1937 60.9925 50.2009C60.9925 47.2082 59.8421 44.338 57.7945 42.2218C55.7468 40.1056 52.9696 38.9167 50.0738 38.9167C47.178 38.9167 44.4008 40.1056 42.3532 42.2218C40.3055 44.338 39.1552 47.2082 39.1552 50.2009Z" fill="#467EE6"/>
</svg>
