<svg width="100" height="100" viewBox="0 0 100 100" fill="none" xmlns="http://www.w3.org/2000/svg">
<rect width="100" height="100" rx="19.1" fill="white"/>
<g clip-path="url(#clip0_769_12)">
<path d="M75.7311 65.6097C74.885 66.0622 74.0081 66.4547 73.107 66.7843C70.2378 67.8593 67.1988 68.4095 64.1349 68.4088C52.3138 68.4088 42.0171 60.2865 42.0171 49.8399C42.0294 48.4404 42.4159 47.0696 43.1366 45.8699C43.8573 44.6702 44.886 43.6852 46.1158 43.0171C35.4193 43.4669 32.6702 54.6133 32.6702 61.1362C32.6702 79.6052 49.6896 81.4796 53.3634 81.4796C55.3378 81.4796 58.3118 80.9047 60.1112 80.3299L60.4361 80.23C67.3253 77.8555 73.1974 73.2002 77.0807 67.0343C77.2219 66.8119 77.2696 66.5427 77.2135 66.2853C77.1573 66.0279 77.0018 65.8031 76.7808 65.6597C76.6256 65.5601 76.4469 65.5031 76.2626 65.4943C76.0784 65.4855 75.8951 65.5253 75.7311 65.6097Z" fill="#0F5197"/>
<path d="M44.4164 78.3306C42.193 76.9475 40.265 75.1384 38.7433 73.0074C37.0076 70.631 35.8129 67.9036 35.2431 65.0166C34.6732 62.1295 34.7419 59.1528 35.4444 56.2951C36.147 53.4374 37.4662 50.7681 39.3097 48.4743C41.1532 46.1806 43.4762 44.318 46.1159 43.0172C47.306 42.3723 48.6361 42.0291 49.9896 42.0175C51.2376 42.0307 52.4658 42.3306 53.5794 42.8939C54.6931 43.4573 55.6624 44.269 56.4125 45.2664C57.4223 46.6181 57.9818 48.2529 58.012 49.9399C58.012 49.8899 64.135 30.0464 38.0185 30.0464C27.0471 30.0464 18.025 40.468 18.025 49.59C17.9832 54.4216 19.0161 59.2021 21.049 63.5855C24.3798 70.6827 30.1996 76.3106 37.4044 79.4016C44.6092 82.4927 52.698 82.8319 60.1363 80.355C57.5253 81.1731 54.7681 81.4158 52.0544 81.0664C49.3407 80.7169 46.7349 79.7836 44.4164 78.3306Z" fill="#0C88DA"/>
<path d="M56.0626 55.2133C55.8627 55.4632 55.2379 55.8381 55.2379 56.6378C55.2379 57.2876 55.6627 57.9124 56.4125 58.4372C60.0113 60.9364 66.7841 60.6115 66.8091 60.6115C69.4731 60.6079 72.0877 59.8917 74.3816 58.5372C76.6921 57.1887 78.6091 55.2587 79.9421 52.9392C81.275 50.6198 81.9773 47.9917 81.9791 45.3165C82.0541 39.7183 79.9798 35.9945 79.1551 34.3451C77.8049 31.7072 76.0378 29.3045 73.9218 27.2299C71.3288 24.6993 68.3103 22.6453 65.0047 21.1619C60.2811 19.0534 55.1624 17.9756 49.9896 18.0004C41.5828 17.9996 33.5135 21.3081 27.5271 27.2103C21.5407 33.1126 18.1182 41.1342 18 49.5401C18.125 40.4181 27.197 33.0455 37.9935 33.0455C38.8682 33.0455 43.8666 33.1205 48.4901 35.5697C52.5637 37.719 54.713 40.2931 56.1876 42.8673C57.737 45.5414 58.012 48.8903 58.012 50.2399C58.012 51.5895 57.3372 53.5638 56.0626 55.2133Z" fill="#2CC3D5"/>
<path d="M58.5968 18.9453C58.5968 18.9453 81.8867 43.0175 55.5628 56.0232C55.5628 56.0232 53.8608 58.8498 61.9907 60.3118C61.9907 60.3118 75.4588 63.2384 80.8945 51.4047C81.9892 47.6934 82.9639 41.9428 80.0698 35.5424C78.8591 32.9305 77.2345 30.5312 75.2589 28.4372C73.1813 26.1542 70.8037 24.1633 68.1912 22.5191C63.9126 20.3324 58.5968 18.9453 58.5968 18.9453Z" fill="#49D668"/>
</g>
<defs>
<clipPath id="clip0_769_12">
<rect width="64" height="64" fill="white" transform="translate(18 18)"/>
</clipPath>
</defs>
</svg>
