<svg width="100" height="100" viewBox="0 0 100 100" fill="none" xmlns="http://www.w3.org/2000/svg">
<rect width="100" height="100" rx="19.1" fill="#1B1C26"/>
<path d="M25.5831 49.0652C22.8173 44.2273 22.255 39.6995 24.2215 36.2863C26.8542 31.7104 33.4624 30.112 41.8187 31.6382C41.9335 31.6539 42.044 31.6927 42.1434 31.7524C42.2429 31.8121 42.3293 31.8913 42.3974 31.9854C42.4654 32.0795 42.5138 32.1864 42.5396 32.2998C42.5653 32.4131 42.5679 32.5305 42.5472 32.6449C42.5265 32.7593 42.4829 32.8682 42.419 32.9652C42.3552 33.0623 42.2724 33.1453 42.1757 33.2093C42.079 33.2734 41.9703 33.3171 41.8563 33.3378C41.7423 33.3586 41.6252 33.356 41.5122 33.3301C33.7848 31.9189 27.8934 33.3435 25.7057 37.147C24.0936 39.9454 24.5786 43.8531 27.07 48.2125C27.1326 48.3107 27.1747 48.4206 27.1937 48.5356C27.2127 48.6505 27.2082 48.7682 27.1805 48.8813C27.1529 48.9945 27.1026 49.1009 27.0327 49.194C26.9628 49.2871 26.8748 49.365 26.7741 49.423C26.6733 49.4809 26.5618 49.5178 26.4464 49.5312C26.331 49.5447 26.2141 49.5345 26.1028 49.5013C25.9914 49.4681 25.8879 49.4126 25.7986 49.3381C25.7093 49.2636 25.636 49.1716 25.5831 49.0679V49.0652ZM65.3393 32.8437C70.2288 32.9078 73.7488 34.4367 75.3342 37.1897C77.5192 40.9825 75.8139 46.7986 70.7564 52.7911C70.6752 52.8758 70.6122 52.9763 70.5712 53.0864C70.5302 53.1965 70.5121 53.3138 70.5181 53.4311C70.524 53.5485 70.5538 53.6634 70.6057 53.7687C70.6576 53.8741 70.7304 53.9676 70.8197 54.0437C70.909 54.1197 71.0129 54.1766 71.1249 54.2109C71.237 54.2451 71.3548 54.256 71.4712 54.2428C71.5876 54.2296 71.7001 54.1927 71.8017 54.1343C71.9033 54.0758 71.9919 53.9971 72.0621 53.903C77.5352 47.4187 79.4457 40.897 76.8184 36.3291C74.8839 32.9693 70.7964 31.1972 65.3632 31.125C65.2469 31.1172 65.1302 31.1333 65.0203 31.1723C64.9103 31.2112 64.8094 31.2722 64.7238 31.3516C64.6381 31.4309 64.5695 31.527 64.5221 31.6338C64.4747 31.7407 64.4495 31.8561 64.448 31.9731C64.4466 32.09 64.4689 32.206 64.5137 32.314C64.5584 32.4221 64.6246 32.5198 64.7083 32.6013C64.7919 32.6827 64.8913 32.7462 65.0002 32.7879C65.1092 32.8296 65.2254 32.8486 65.3419 32.8437H65.3393ZM60.3991 73.5752C60.3025 73.5169 60.1954 73.4783 60.0839 73.4615C59.9725 73.4447 59.8588 73.4501 59.7494 73.4774C59.6401 73.5047 59.5371 73.5534 59.4465 73.6206C59.3559 73.6878 59.2794 73.7723 59.2213 73.8692C56.7325 78.0201 53.6789 80.2814 50.5346 80.2814C46.1593 80.2814 41.9865 75.8792 39.3432 68.4727C39.3079 68.363 39.251 68.2615 39.1758 68.1743C39.1006 68.0871 39.0087 68.0159 38.9056 67.965C38.8024 67.9141 38.6901 67.8845 38.5754 67.8779C38.4606 67.8714 38.3457 67.8881 38.2375 67.9269C38.1293 67.9658 38.0299 68.0261 37.9454 68.1042C37.8609 68.1824 37.7928 68.2767 37.7453 68.3817C37.6979 68.4867 37.6719 68.6002 37.669 68.7155C37.6661 68.8308 37.6863 68.9455 37.7285 69.0527C40.5876 77.0659 45.2693 82 50.5293 82C54.3664 82 57.9183 79.3753 60.6895 74.7566C60.7476 74.6597 60.7861 74.5523 60.8028 74.4405C60.8196 74.3287 60.8142 74.2147 60.7869 74.105C60.7597 73.9953 60.7112 73.892 60.6442 73.8011C60.5772 73.7102 60.493 73.6334 60.3964 73.5752H60.3991ZM80 66.6418C79.9988 67.3978 79.79 68.1388 79.3966 68.7837C79.0032 69.4285 78.4404 69.9522 77.7699 70.2973C77.0994 70.6424 76.347 70.7957 75.5954 70.7402C74.8438 70.6847 74.1219 70.4227 73.509 69.9829C66.9673 73.8451 54.4676 71.8806 42.706 65.0648C37.6965 62.1648 33.3079 58.6714 29.9291 54.9481C29.848 54.8656 29.7843 54.7674 29.7419 54.6596C29.6995 54.5517 29.6793 54.4364 29.6824 54.3205C29.6855 54.2046 29.712 54.0905 29.7602 53.9851C29.8083 53.8797 29.8772 53.7852 29.9627 53.7072C30.0482 53.6292 30.1486 53.5693 30.2577 53.5311C30.3668 53.493 30.4825 53.4773 30.5979 53.4851C30.7132 53.4929 30.8257 53.524 30.9288 53.5766C31.0318 53.6291 31.1232 53.7019 31.1975 53.7908C34.4537 57.3804 38.7037 60.7642 43.5613 63.5761C54.6648 70.0069 66.3518 71.9153 72.3312 68.6705C72.0199 68.1225 71.8383 67.51 71.8004 66.8803C71.7626 66.2507 71.8695 65.6208 72.1129 65.0392C72.3563 64.4576 72.7298 63.9399 73.2044 63.526C73.679 63.1122 74.242 62.8133 74.8501 62.6525C75.4581 62.4916 76.0949 62.4731 76.7112 62.5983C77.3275 62.7236 77.9069 62.9892 78.4046 63.3748C78.9023 63.7603 79.305 64.2554 79.5817 64.8219C79.8583 65.3884 80.0014 66.011 80 66.6418ZM29.207 66.6418C29.2083 67.3679 29.0181 68.0815 28.6557 68.71C28.2933 69.3386 27.7716 69.8598 27.1435 70.2208C26.5155 70.5818 25.8034 70.7697 25.0795 70.7654C24.3556 70.7612 23.6458 70.5649 23.0219 70.1966C22.3981 69.8283 21.8825 69.301 21.5275 68.6682C21.1724 68.0354 20.9906 67.3197 21.0004 66.5936C21.0102 65.8676 21.2113 65.1571 21.5832 64.5341C21.9552 63.9112 22.4848 63.3981 23.1184 63.0468C22.4975 55.3571 30.5527 45.0479 42.73 37.9969C47.7874 35.0675 53.0527 32.988 58.0009 31.9269C58.2157 31.8965 58.434 31.9489 58.6118 32.0734C58.7897 32.198 58.9139 32.3855 58.9595 32.5982C59.0051 32.811 58.9687 33.0331 58.8576 33.22C58.7464 33.4069 58.5689 33.5446 58.3606 33.6054C53.5909 34.6318 48.4935 36.6445 43.5853 39.4857C32.1168 46.1277 24.5386 55.7019 24.8051 62.5444C24.9063 62.5363 25.0049 62.5283 25.1062 62.5283C27.3711 62.5283 29.2097 64.3726 29.2097 66.6445L29.207 66.6418ZM46.4311 21.9679C46.4694 20.9026 46.9182 19.8937 47.6831 19.1536C48.448 18.4136 49.4692 18 50.532 18C51.5947 18 52.616 18.4136 53.3808 19.1536C54.1457 19.8937 54.5945 20.9026 54.6328 21.9679C54.6328 22.0293 54.6275 22.0881 54.6248 22.147C61.4169 25.6671 66.136 37.6762 66.136 51.5563C66.136 57.2628 65.3419 62.7395 63.8604 67.4864C63.8309 67.599 63.779 67.7043 63.7077 67.7962C63.6365 67.888 63.5474 67.9644 63.4459 68.0207C63.3444 68.077 63.2326 68.1121 63.1172 68.1239C63.0018 68.1356 62.8852 68.1238 62.7745 68.089C62.6638 68.0543 62.5613 67.9974 62.4731 67.9218C62.3849 67.8462 62.3129 67.7535 62.2615 67.6492C62.2101 67.5449 62.1803 67.4312 62.1739 67.315C62.1675 67.1989 62.1846 67.0826 62.2243 66.9733C63.6526 62.3973 64.4226 57.0917 64.4226 51.5563C64.4226 38.4861 60.09 27.2467 54.1718 23.8576C53.7505 24.6772 53.0667 25.331 52.2303 25.7137C51.3939 26.0965 50.4535 26.1861 49.5602 25.968C48.6669 25.7499 47.8727 25.2369 47.3052 24.5114C46.7377 23.7859 46.4298 22.8901 46.4311 21.9679ZM49.9058 48.6456C49.5247 48.728 49.1636 48.885 48.843 49.1075C48.5224 49.33 48.2486 49.6136 48.0373 49.9422C47.826 50.2708 47.6813 50.638 47.6115 51.0227C47.5416 51.4074 47.548 51.8022 47.6302 52.1844C47.7124 52.5666 47.8689 52.9289 48.0907 53.2505C48.3125 53.5721 48.5953 53.8467 48.9229 54.0586C49.2505 54.2706 49.6165 54.4157 50 54.4858C50.3836 54.5559 50.7771 54.5495 51.1581 54.467C51.5392 54.3845 51.9004 54.2276 52.2209 54.0051C52.5415 53.7826 52.8153 53.4989 53.0266 53.1703C53.2379 52.8417 53.3826 52.4746 53.4525 52.0899C53.5223 51.7051 53.516 51.3104 53.4337 50.9282C53.3515 50.5459 53.195 50.1837 52.9732 49.8621C52.7514 49.5405 52.4686 49.2659 52.141 49.0539C51.8134 48.842 51.4474 48.6968 51.0639 48.6267C50.6804 48.5567 50.2868 48.5631 49.9058 48.6456Z" fill="#9FEAF9"/>
<rect x="48.5" y="20" width="4" height="4" rx="2" fill="#1B1C26"/>
<rect x="23.1" y="64.7002" width="4" height="4" rx="2" fill="#1B1C26"/>
<rect x="74" y="64.7002" width="4" height="4" rx="2" fill="#1B1C26"/>
</svg>
