<svg width="100" height="100" viewBox="0 0 100 100" fill="none" xmlns="http://www.w3.org/2000/svg">
<rect width="100" height="100" rx="19.1" fill="#20123A"/>
<path d="M72.5365 31.4308C74.288 34.8622 75.2955 38.309 75.683 40.8768V40.9385C78.6125 48.9041 77.016 56.993 74.7143 61.9435C71.1571 69.6006 62.5469 77.4428 49.0697 77.0572C34.5076 76.6485 21.6737 65.8067 19.279 51.6184C18.845 49.3822 19.279 48.2409 19.5037 46.4288C19.2325 47.8322 19.1317 48.2332 19 50.7239V50.8781C19 68.0661 32.8956 82 50.0462 82C65.3989 82 78.1475 70.8267 80.643 56.1448C80.6972 55.7515 80.736 55.3505 80.7825 54.9495C81.3947 49.6058 80.7127 43.9998 78.7597 39.3038V39.3115C77.419 36.0497 74.6833 32.5412 72.5365 31.4308Z" fill="#D51257"/>
<path d="M63.9264 43.3443C63.1514 41.9563 62.1749 40.684 61.0434 39.5736C51.3637 29.8962 58.5014 18.5918 59.7104 18.0211L59.7181 18.0057C51.9062 22.5861 49.2557 31.0529 49.0077 35.294C49.372 35.2708 49.7362 35.24 50.1005 35.24C55.7502 35.2477 60.9581 38.2936 63.7326 43.2055V43.1978L63.9264 43.3443Z" fill="#FFD137"/>
<path d="M46.3805 48.5801C40.4828 48.5801 37.0496 50.3614 36.0963 53.9316C36.4838 58.4426 39.6303 62.1516 43.4278 64.1179C43.5983 64.2028 43.7765 64.2876 43.947 64.3647C44.2493 64.4958 44.5515 64.6269 44.8538 64.7425C46.1635 65.1975 47.5275 65.4597 48.907 65.5214C64.4146 66.2462 67.4293 46.9685 56.2307 41.3703C59.0981 40.8768 62.0741 42.0334 63.7326 43.1901C62.3695 40.7836 60.3899 38.7795 57.9953 37.3816C55.6008 35.9838 52.8767 35.2422 50.1005 35.2322C49.7285 35.2322 49.372 35.2631 49 35.2939C45.8789 35.511 42.8966 36.6614 40.4441 38.5943C40.9168 38.9953 41.4515 39.535 42.583 40.6454C44.691 42.7274 50.116 44.8788 50.1237 45.1333C50.0695 45.9044 47.3415 48.5801 46.3805 48.5801Z" fill="#6C66EC"/>
<path d="M39.6381 37.985C38.9251 35.5021 38.9019 32.8803 39.5528 30.3819C36.3521 31.8393 33.8644 34.1372 32.0587 36.1729C32.2059 36.1652 36.7164 36.0881 38.9871 37.5609L39.6381 37.985Z" fill="#FF9E3E"/>
<path d="M19.2325 51.8574C18.6822 49.3436 19.7905 44.5165 19.8137 44.4548C20.5732 41.0619 21.9915 37.8618 23.991 35.0241C24.8589 33.7827 25.8354 32.6183 26.8972 31.5387C27.8349 30.5826 28.8502 29.7112 29.9429 28.9324C30.0592 28.8476 30.9581 28.3155 30.9736 28.3849C30.9039 29.4567 30.8186 34.6077 32.0509 36.1731H32.0664C32.2136 36.1731 36.7318 36.0883 38.9948 37.5688C39.2583 37.7384 39.4598 37.8618 39.6458 37.9929C39.9248 38.178 40.1961 38.3862 40.4518 38.6021C40.9323 39.0031 41.4671 39.5428 42.5908 40.6532C44.7065 42.7352 50.116 44.8866 50.1315 45.1411C50.1315 45.1411 44.474 47.5161 38.4446 44.6861C34.1124 42.6427 30.2916 42.7969 27.0057 45.1411C28.2534 48.2332 30.7101 49.7754 34.3759 49.7754C33.8024 54.8647 36.4916 60.8023 43.0015 63.9098C43.1488 63.9869 43.3038 64.0641 43.451 64.1335C45.621 65.6063 56.3082 69.2151 67.4758 60.1237C67.4758 60.1083 67.4836 60.0929 67.4913 60.0774C73.203 55.3737 76.8688 48.4106 75.7915 41.2161C78.7055 49.1663 77.109 57.2398 74.815 62.1748C71.2423 69.8319 62.6089 77.6741 49.093 77.2963C34.4921 76.8799 21.635 66.0381 19.2325 51.8574ZM75.7915 41.2161C75.7915 41.2007 75.7838 41.1853 75.776 41.1776V41.1159L75.7838 41.1622C75.7915 41.1853 75.7915 41.2007 75.7915 41.2161Z" fill="#FF4F38"/>
<path d="M63.9264 43.3443C64.0969 43.4677 64.2519 43.5988 64.3991 43.7299C71.4516 50.2304 67.7626 59.422 67.4836 60.0851C73.2108 55.3582 76.8765 48.372 75.7761 41.1699C72.2576 32.3869 66.2901 28.8553 61.4154 21.1519C61.1597 20.7586 60.9194 20.3654 60.6792 19.9567C60.5629 19.7485 60.4467 19.5326 60.3382 19.3167C60.1367 18.9234 59.9817 18.5147 59.8732 18.0829C59.8732 18.0443 59.8499 18.0135 59.8034 18.0058C59.7879 17.9981 59.7647 17.9981 59.7414 18.0058C59.7414 18.0058 59.7337 18.0058 59.7337 18.0135L59.7104 18.0211C58.5092 18.5995 51.3637 29.8962 61.0434 39.5736C62.1749 40.6917 63.1514 41.9563 63.9264 43.3443Z" fill="#FFE544"/>
<path d="M63.9341 43.3366L63.7326 43.1901C62.0741 42.0257 59.0981 40.8768 56.2307 41.3703C67.4216 46.9685 64.4224 66.2385 48.907 65.5137C47.5275 65.4597 46.1635 65.1975 44.8615 64.7348C44.3733 64.5498 43.8928 64.3416 43.4278 64.1179L43.451 64.1257C45.6133 65.5985 56.3004 69.2073 67.4681 60.1159L67.4836 60.0696C67.7626 59.4219 71.4516 50.2226 64.3914 43.7299L64.3991 43.7299C64.2519 43.5911 64.0969 43.46 63.9341 43.3366Z" fill="#FF9800"/>
<path d="M46.3728 48.5802C47.326 48.5802 50.0618 45.9121 50.1083 45.1333C50.1625 44.3545 44.4586 47.5083 38.4291 44.6784C34.0892 42.6349 30.2762 42.7891 26.9902 45.1333C28.238 48.2254 30.6947 49.7677 34.3604 49.7677C33.7792 54.857 36.4684 60.7945 42.9861 63.9098C43.1333 63.9715 43.2651 64.0486 43.4123 64.118C39.6149 62.1594 36.4761 58.4426 36.0809 53.9316H36.0886C37.0419 50.3614 40.4751 48.5802 46.3728 48.5802Z" fill="#FFD439"/>
</svg>
