<svg width="100" height="100" viewBox="0 0 100 100" fill="none" xmlns="http://www.w3.org/2000/svg">
<rect width="100" height="100" rx="19.1" fill="white"/>
<path d="M10 50C10 55.2529 11.0346 60.4543 13.0448 65.3073C15.055 70.1604 18.0014 74.5699 21.7157 78.2843C25.4301 81.9986 29.8396 84.945 34.6927 86.9552C39.5457 88.9654 44.7471 90 50 90C55.2529 90 60.4543 88.9654 65.3073 86.9552C70.1604 84.945 74.5699 81.9986 78.2843 78.2843C81.9986 74.5699 84.945 70.1604 86.9552 65.3073C88.9654 60.4543 90 55.2529 90 50C90 39.3913 85.7857 29.2172 78.2843 21.7157C70.7828 14.2143 60.6087 10 50 10C39.3913 10 29.2172 14.2143 21.7157 21.7157C14.2143 29.2172 10 39.3913 10 50Z" fill="#468EE7"/>
<path d="M50 19.7674C49.8766 19.7674 49.7583 19.7184 49.6711 19.6312C49.5839 19.544 49.5349 19.4257 49.5349 19.3023V13.7209C49.5349 13.5976 49.5839 13.4793 49.6711 13.392C49.7583 13.3048 49.8766 13.2558 50 13.2558C50.1234 13.2558 50.2417 13.3048 50.3289 13.392C50.4161 13.4793 50.4651 13.5976 50.4651 13.7209V19.3023C50.4651 19.4257 50.4161 19.544 50.3289 19.6312C50.2417 19.7184 50.1234 19.7674 50 19.7674ZM52.8791 17.1014C52.7562 17.0908 52.6426 17.0318 52.5633 16.9374C52.4839 16.843 52.4452 16.721 52.4558 16.5981L52.6986 13.8177C52.7095 13.695 52.7686 13.5816 52.8629 13.5025C52.9573 13.4233 53.0792 13.3848 53.2019 13.3953C53.3247 13.406 53.4383 13.465 53.5177 13.5594C53.597 13.6537 53.6357 13.7758 53.6251 13.8986L53.3823 16.6781C53.3717 16.801 53.3127 16.9146 53.2183 16.994C53.1239 17.0733 53.0019 17.112 52.8791 17.1014ZM55.2474 20.2279C55.1873 20.2172 55.1298 20.1948 55.0783 20.1619C55.0268 20.129 54.9823 20.0863 54.9473 20.0362C54.9123 19.9861 54.8875 19.9296 54.8744 19.8699C54.8612 19.8102 54.86 19.7485 54.8707 19.6884L55.8419 14.1907C55.8634 14.0694 55.9322 13.9615 56.0332 13.8909C56.1342 13.8203 56.2591 13.7926 56.3805 13.814C56.4406 13.8245 56.4981 13.8468 56.5497 13.8796C56.6012 13.9124 56.6458 13.955 56.6809 14.005C56.7159 14.055 56.7408 14.1115 56.7541 14.1711C56.7673 14.2307 56.7687 14.2924 56.7581 14.3526L55.787 19.8502C55.7764 19.9105 55.7541 19.9681 55.7212 20.0197C55.6884 20.0713 55.6457 20.1159 55.5956 20.151C55.5455 20.1861 55.4889 20.2109 55.4292 20.2241C55.3694 20.2373 55.3077 20.2386 55.2474 20.2279ZM58.547 18.1023C58.4879 18.0866 58.4325 18.0593 58.3839 18.0221C58.3354 17.9849 58.2946 17.9385 58.264 17.8855C58.2335 17.8325 58.2136 17.7741 58.2057 17.7134C58.1977 17.6528 58.2018 17.5912 58.2177 17.5321L58.9405 14.8363C58.9563 14.7773 58.9837 14.722 59.0209 14.6735C59.0582 14.6251 59.1046 14.5844 59.1575 14.5539C59.2105 14.5234 59.2689 14.5037 59.3295 14.4958C59.3901 14.4879 59.4517 14.492 59.5107 14.5079C59.5697 14.5238 59.625 14.5511 59.6735 14.5883C59.7219 14.6256 59.7625 14.672 59.793 14.725C59.8235 14.7779 59.8433 14.8364 59.8512 14.897C59.8591 14.9576 59.855 15.0191 59.8391 15.0781L59.1163 17.774C59.1004 17.833 59.0731 17.8883 59.0358 17.9367C58.9986 17.9852 58.9522 18.0258 58.8992 18.0563C58.8463 18.0868 58.7878 18.1066 58.7272 18.1145C58.6666 18.1224 58.6051 18.1182 58.546 18.1023H58.547ZM60.3405 21.5907C60.2247 21.5485 60.1304 21.4622 60.0783 21.3505C60.0261 21.2389 60.0204 21.1112 60.0623 20.9953L61.9712 15.7498C61.992 15.6923 62.024 15.6396 62.0653 15.5945C62.1066 15.5495 62.1563 15.513 62.2117 15.4872C62.267 15.4613 62.327 15.4467 62.388 15.444C62.4491 15.4413 62.51 15.4507 62.5674 15.4716C62.6249 15.4925 62.6776 15.5245 62.7227 15.5658C62.7677 15.607 62.8042 15.6568 62.8301 15.7121C62.8559 15.7675 62.8705 15.8274 62.8732 15.8885C62.8759 15.9495 62.8665 16.0105 62.8456 16.0679L60.9367 21.3126C60.9159 21.37 60.8839 21.4227 60.8426 21.4678C60.8013 21.5129 60.7516 21.5493 60.6962 21.5752C60.6409 21.601 60.5809 21.6157 60.5199 21.6183C60.4588 21.621 60.3979 21.6116 60.3405 21.5907ZM63.9563 20.0707C63.8446 20.0186 63.7581 19.9243 63.7159 19.8084C63.6737 19.6926 63.6792 19.5648 63.7312 19.453L64.9107 16.9228C64.963 16.8112 65.0574 16.725 65.1732 16.683C65.289 16.6409 65.4167 16.6466 65.5284 16.6986C65.6401 16.7507 65.7265 16.845 65.7688 16.9609C65.811 17.0767 65.8055 17.2045 65.7535 17.3163L64.574 19.8465C64.5217 19.9581 64.4273 20.0443 64.3115 20.0863C64.1957 20.1284 64.0679 20.1227 63.9563 20.0707ZM65.1163 23.8177C65.0095 23.756 64.9315 23.6544 64.8996 23.5353C64.8677 23.4161 64.8844 23.2892 64.946 23.1823L67.7367 18.3488C67.7984 18.242 67.9 18.1641 68.0192 18.1321C68.1383 18.1002 68.2653 18.1169 68.3721 18.1786C68.4789 18.2403 68.5569 18.3419 68.5888 18.461C68.6207 18.5802 68.604 18.7071 68.5423 18.814L65.7516 23.6474C65.6899 23.7543 65.5884 23.8322 65.4692 23.8641C65.3501 23.8961 65.2231 23.8794 65.1163 23.8177ZM68.9405 22.9488C68.8904 22.9137 68.8478 22.8691 68.815 22.8175C68.7822 22.7659 68.7599 22.7084 68.7493 22.6482C68.7388 22.588 68.7402 22.5263 68.7535 22.4666C68.7669 22.4069 68.7918 22.3505 68.827 22.3005L70.4288 20.0149C70.4997 19.9141 70.6077 19.8455 70.7291 19.8242C70.8505 19.8029 70.9753 19.8307 71.0763 19.9014C71.1771 19.9723 71.2457 20.0802 71.267 20.2016C71.2883 20.323 71.2605 20.4479 71.1898 20.5488L69.5879 22.8344C69.517 22.9353 69.4091 23.0038 69.2877 23.0251C69.1663 23.0464 69.0414 23.0186 68.9405 22.9479V22.9488ZM69.4326 26.84C69.3384 26.7605 69.2796 26.6469 69.2692 26.5241C69.2587 26.4013 69.2974 26.2794 69.3767 26.1851L72.9637 21.9098C73.043 21.8153 73.1564 21.7562 73.2792 21.7454C73.402 21.7346 73.5241 21.773 73.6186 21.8521C73.713 21.9313 73.7722 22.0448 73.783 22.1676C73.7938 22.2904 73.7554 22.4125 73.6763 22.507L70.0884 26.7833C70.009 26.8776 69.8955 26.9365 69.7727 26.9471C69.6499 26.9578 69.5279 26.9192 69.4335 26.84H69.4326ZM73.3507 26.6493C73.2635 26.5621 73.2145 26.4438 73.2145 26.3205C73.2145 26.1971 73.2635 26.0789 73.3507 25.9916L75.3237 24.0177C75.3669 23.9744 75.4183 23.94 75.4748 23.9165C75.5313 23.8931 75.5918 23.881 75.653 23.881C75.7142 23.881 75.7748 23.8931 75.8313 23.9165C75.8878 23.94 75.9391 23.9744 75.9823 24.0177C76.0256 24.0609 76.06 24.1122 76.0835 24.1687C76.1069 24.2252 76.119 24.2858 76.119 24.347C76.119 24.4082 76.1069 24.4687 76.0835 24.5252C76.06 24.5817 76.0256 24.6331 75.9823 24.6763L74.0084 26.6484C73.9211 26.7356 73.8029 26.7846 73.6795 26.7846C73.5562 26.7846 73.4379 26.7356 73.3507 26.6484V26.6493ZM77.0512 31.0605C76.9805 30.9594 76.9529 30.8345 76.9744 30.7131C76.9958 30.5917 77.0646 30.4837 77.1656 30.413L79.4512 28.8112C79.5521 28.7404 79.677 28.7127 79.7984 28.734C79.9198 28.7552 80.0277 28.8238 80.0986 28.9247C80.1693 29.0256 80.1971 29.1505 80.1758 29.2719C80.1545 29.3932 80.086 29.5012 79.9851 29.5721L77.6995 31.174C77.5986 31.2447 77.4737 31.2724 77.3523 31.2512C77.2309 31.2299 77.123 31.1613 77.0521 31.0605H77.0512ZM76.1823 34.8837C76.1206 34.7769 76.1039 34.6499 76.1359 34.5308C76.1678 34.4116 76.2457 34.3101 76.3526 34.2484L81.186 31.4577C81.2929 31.396 81.4198 31.3793 81.539 31.4112C81.6581 31.4431 81.7597 31.5211 81.8214 31.6279C81.8831 31.7347 81.8998 31.8617 81.8679 31.9808C81.8359 32.1 81.758 32.2016 81.6512 32.2633L76.8177 35.054C76.7109 35.1156 76.5839 35.1323 76.4647 35.1004C76.3456 35.0685 76.244 34.9905 76.1823 34.8837ZM79.9293 36.0437C79.8773 35.932 79.8718 35.8041 79.914 35.6883C79.9562 35.5725 80.0427 35.4782 80.1544 35.426L82.6837 34.2465C82.7955 34.1945 82.9233 34.189 83.0391 34.2312C83.155 34.2735 83.2493 34.3599 83.3014 34.4716C83.3534 34.5834 83.3589 34.7112 83.3167 34.8271C83.2745 34.9429 83.188 35.0372 83.0763 35.0893L80.547 36.2688C80.4352 36.3208 80.3074 36.3263 80.1916 36.2841C80.0757 36.2419 79.9814 36.1554 79.9293 36.0437ZM78.4093 39.6595C78.3674 39.5437 78.3731 39.416 78.4252 39.3043C78.4774 39.1927 78.5717 39.1064 78.6874 39.0642L83.9321 37.1544C84.0479 37.1125 84.1757 37.1182 84.2873 37.1704C84.3989 37.2225 84.4853 37.3168 84.5274 37.4326C84.5694 37.5483 84.5638 37.6759 84.5119 37.7875C84.4599 37.8991 84.3658 37.9856 84.2502 38.0279L79.0056 39.9377C78.9482 39.9586 78.8872 39.968 78.8262 39.9653C78.7651 39.9626 78.7052 39.948 78.6498 39.9221C78.5944 39.8963 78.5447 39.8598 78.5034 39.8148C78.4622 39.7697 78.4302 39.717 78.4093 39.6595ZM81.8977 41.454C81.8818 41.3949 81.8777 41.3333 81.8857 41.2726C81.8936 41.212 81.9135 41.1535 81.944 41.1005C81.9746 41.0476 82.0154 41.0012 82.0639 40.9639C82.1125 40.9267 82.1679 40.8995 82.227 40.8837L84.9228 40.1609C85.0418 40.1291 85.1686 40.1458 85.2754 40.2074C85.3821 40.2689 85.4601 40.3703 85.4921 40.4893C85.508 40.5483 85.5121 40.6099 85.5042 40.6705C85.4963 40.7311 85.4766 40.7895 85.4461 40.8425C85.4156 40.8954 85.3749 40.9419 85.3265 40.9791C85.2781 41.0163 85.2227 41.0437 85.1637 41.0595L82.4679 41.7823C82.4089 41.7982 82.3473 41.8024 82.2867 41.7945C82.2262 41.7866 82.1677 41.7668 82.1147 41.7363C82.0618 41.7058 82.0154 41.6652 81.9781 41.6167C81.9409 41.5683 81.9135 41.513 81.8977 41.454ZM79.7721 44.7526C79.7614 44.6924 79.7626 44.6307 79.7758 44.571C79.7889 44.5113 79.8137 44.4548 79.8487 44.4047C79.8837 44.3546 79.9282 44.3119 79.9797 44.279C80.0312 44.2461 80.0887 44.2237 80.1488 44.213L85.6465 43.2428C85.7067 43.2321 85.7684 43.2333 85.8281 43.2465C85.8877 43.2596 85.9443 43.2844 85.9944 43.3194C86.0445 43.3543 86.0872 43.3989 86.1201 43.4504C86.153 43.5019 86.1754 43.5594 86.1861 43.6195C86.1968 43.6798 86.1955 43.7415 86.1823 43.8013C86.1691 43.861 86.1442 43.9175 86.1092 43.9677C86.0741 44.0178 86.0294 44.0605 85.9778 44.0933C85.9262 44.1262 85.8686 44.1485 85.8084 44.1591L80.3107 45.1293C80.2505 45.14 80.1888 45.1388 80.1292 45.1256C80.0695 45.1125 80.013 45.0877 79.9629 45.0527C79.9127 45.0178 79.87 44.9732 79.8371 44.9217C79.8042 44.8702 79.7818 44.8127 79.7712 44.7526H79.7721Z" fill="white"/>
<path d="M82.8986 47.1209C82.888 46.998 82.9267 46.876 83.006 46.7816C83.0854 46.6872 83.199 46.6282 83.3218 46.6176L86.1014 46.3748C86.2241 46.3642 86.346 46.4028 86.4403 46.4819C86.5347 46.5611 86.5938 46.6745 86.6046 46.7971C86.6155 46.92 86.5771 47.0421 86.4979 47.1367C86.4187 47.2312 86.3052 47.2905 86.1823 47.3013L83.4028 47.5441C83.3419 47.5495 83.2805 47.5428 83.2222 47.5244C83.1639 47.506 83.1098 47.4763 83.0629 47.437C83.0161 47.3977 82.9775 47.3496 82.9493 47.2953C82.9211 47.2411 82.9039 47.1818 82.8986 47.1209Z" fill="white"/>
<path d="M80.2326 50C80.2326 49.8766 80.2816 49.7583 80.3688 49.6711C80.456 49.5839 80.5743 49.5349 80.6977 49.5349H86.2791C86.4024 49.5349 86.5208 49.5839 86.608 49.6711C86.6952 49.7583 86.7442 49.8766 86.7442 50C86.7442 50.1234 86.6952 50.2417 86.608 50.3289C86.5208 50.4161 86.4024 50.4651 86.2791 50.4651H80.6977C80.5743 50.4651 80.456 50.4161 80.3688 50.3289C80.2816 50.2417 80.2326 50.1234 80.2326 50ZM82.8977 52.8781C82.903 52.8172 82.9202 52.7579 82.9484 52.7037C82.9766 52.6494 83.0152 52.6013 83.062 52.562C83.1089 52.5227 83.163 52.493 83.2213 52.4746C83.2796 52.4562 83.341 52.4495 83.4019 52.4549L86.1824 52.6986C86.3052 52.7095 86.4187 52.7687 86.4979 52.8632C86.5771 52.9578 86.6155 53.0799 86.6047 53.2028C86.5938 53.3256 86.5346 53.4392 86.44 53.5184C86.3455 53.5976 86.2234 53.636 86.1005 53.6251L83.321 53.3823C83.26 53.3771 83.2008 53.3598 83.1465 53.3316C83.0923 53.3034 83.0441 53.2648 83.0048 53.218C82.9655 53.1712 82.9358 53.117 82.9174 53.0587C82.899 53.0004 82.8923 52.939 82.8977 52.8781ZM79.7731 55.2493C79.7946 55.128 79.8634 55.0201 79.9644 54.9495C80.0654 54.8789 80.1903 54.8512 80.3117 54.8726L85.8084 55.8419C85.9297 55.8634 86.0376 55.9322 86.1082 56.0332C86.1788 56.1342 86.2065 56.2591 86.1851 56.3805C86.1636 56.5018 86.0948 56.6096 85.9938 56.6803C85.8928 56.7509 85.7679 56.7786 85.6465 56.7572L80.1498 55.7888C80.0896 55.7782 80.0321 55.7558 79.9806 55.7229C79.9291 55.69 79.8846 55.6472 79.8496 55.5971C79.8146 55.547 79.7899 55.4905 79.7767 55.4308C79.7636 55.3712 79.7623 55.3095 79.7731 55.2493ZM81.8977 58.547C81.9136 58.488 81.9409 58.4327 81.9781 58.3842C82.0154 58.3358 82.0618 58.2951 82.1148 58.2646C82.1677 58.2341 82.2262 58.2144 82.2868 58.2065C82.3474 58.1986 82.4089 58.2027 82.4679 58.2186L85.1628 58.9405C85.282 58.9723 85.3836 59.0502 85.4454 59.1569C85.5071 59.2637 85.5239 59.3906 85.4921 59.5098C85.4603 59.6289 85.3824 59.7305 85.2757 59.7923C85.1689 59.8541 85.042 59.8709 84.9228 59.8391L82.227 59.1172C82.1679 59.1014 82.1125 59.0742 82.0639 59.037C82.0154 58.9998 81.9747 58.9534 81.9441 58.9004C81.9135 58.8474 81.8936 58.789 81.8857 58.7283C81.8777 58.6677 81.8818 58.606 81.8977 58.547ZM78.4093 60.3405C78.4515 60.2247 78.5379 60.1304 78.6495 60.0783C78.7611 60.0261 78.8888 60.0204 79.0047 60.0623L84.2503 61.9712C84.3077 61.992 84.3604 62.024 84.4055 62.0653C84.4506 62.1066 84.487 62.1563 84.5129 62.2117C84.5387 62.267 84.5534 62.327 84.556 62.388C84.5587 62.4491 84.5493 62.51 84.5284 62.5674C84.5075 62.6249 84.4755 62.6776 84.4343 62.7227C84.393 62.7677 84.3433 62.8042 84.2879 62.8301C84.2325 62.8559 84.1726 62.8705 84.1116 62.8732C84.0505 62.8759 83.9895 62.8665 83.9321 62.8456L78.6875 60.9367C78.63 60.9159 78.5773 60.8839 78.5322 60.8426C78.4872 60.8013 78.4507 60.7516 78.4249 60.6962C78.399 60.6409 78.3844 60.5809 78.3817 60.5199C78.379 60.4588 78.3884 60.3979 78.4093 60.3405ZM79.9293 63.9563C79.9814 63.8446 80.0758 63.7581 80.1916 63.7159C80.3074 63.6737 80.4352 63.6792 80.547 63.7312L83.0772 64.9107C83.1888 64.963 83.275 65.0574 83.3171 65.1732C83.3591 65.289 83.3535 65.4167 83.3014 65.5284C83.2493 65.6401 83.155 65.7265 83.0392 65.7688C82.9234 65.811 82.7955 65.8055 82.6837 65.7535L80.1535 64.574C80.042 64.5217 79.9557 64.4273 79.9137 64.3115C79.8717 64.1957 79.8773 64.0679 79.9293 63.9563ZM76.1824 65.1163C76.244 65.0095 76.3456 64.9315 76.4648 64.8996C76.5839 64.8677 76.7109 64.8844 76.8177 64.946L81.6512 67.7367C81.758 67.7984 81.836 67.9 81.8679 68.0192C81.8998 68.1383 81.8831 68.2653 81.8214 68.3721C81.7597 68.4789 81.6582 68.5569 81.539 68.5888C81.4199 68.6207 81.2929 68.604 81.1861 68.5423L76.3526 65.7516C76.2458 65.6899 76.1678 65.5884 76.1359 65.4692C76.104 65.3501 76.1207 65.2231 76.1824 65.1163ZM77.0512 68.9395C77.0863 68.8895 77.1309 68.8468 77.1825 68.814C77.2341 68.7812 77.2916 68.7589 77.3518 68.7484C77.4121 68.7378 77.4738 68.7393 77.5334 68.7526C77.5931 68.7659 77.6496 68.7909 77.6996 68.826L79.9851 70.4279C80.086 70.4988 80.1546 70.6068 80.1758 70.7281C80.1971 70.8495 80.1694 70.9744 80.0986 71.0753C80.0278 71.1762 79.9198 71.2448 79.7984 71.266C79.677 71.2873 79.5521 71.2596 79.4512 71.1888L77.1656 69.5879C77.1155 69.5528 77.0729 69.5082 77.0401 69.4566C77.0073 69.405 76.985 69.3475 76.9745 69.2872C76.9639 69.227 76.9653 69.1653 76.9787 69.1057C76.992 69.046 77.017 68.9895 77.0521 68.9395H77.0512Z" fill="white"/>
<path d="M73.16 69.4326C73.2395 69.3385 73.3531 69.2797 73.4759 69.2693C73.5987 69.2588 73.7206 69.2975 73.8149 69.3768L78.0902 72.9638C78.1847 73.043 78.2438 73.1565 78.2546 73.2793C78.2654 73.4021 78.227 73.5242 78.1479 73.6187C78.0687 73.7131 77.9552 73.7722 77.8324 73.7831C77.7096 73.7939 77.5875 73.7555 77.493 73.6764L73.2167 70.0885C73.1225 70.0091 73.0635 69.8955 73.0529 69.7728C73.0422 69.65 73.0808 69.528 73.16 69.4336V69.4326Z" fill="white"/>
<path d="M73.3507 73.3507C73.438 73.2635 73.5562 73.2145 73.6796 73.2145C73.8029 73.2145 73.9212 73.2635 74.0084 73.3507L75.9824 75.3237C76.0257 75.3669 76.06 75.4182 76.0835 75.4747C76.1069 75.5313 76.119 75.5918 76.119 75.653C76.119 75.7142 76.1069 75.7748 76.0835 75.8313C76.06 75.8878 76.0257 75.9391 75.9824 75.9823C75.9392 76.0256 75.8878 76.06 75.8313 76.0834C75.7748 76.1069 75.7142 76.119 75.6531 76.119C75.5919 76.119 75.5313 76.1069 75.4748 76.0834C75.4183 76.06 75.367 76.0256 75.3238 75.9823L73.3517 74.0084C73.2645 73.9211 73.2155 73.8029 73.2155 73.6795C73.2155 73.5562 73.2645 73.4379 73.3517 73.3507H73.3507ZM69.4326 73.16C69.527 73.0808 69.649 73.0422 69.7718 73.0529C69.8946 73.0635 70.0081 73.1224 70.0875 73.2167L73.6763 77.4921C73.7157 77.5388 73.7455 77.5929 73.7639 77.6512C73.7824 77.7095 73.7892 77.7708 73.7839 77.8318C73.7786 77.8927 73.7614 77.9519 73.7332 78.0062C73.705 78.0604 73.6664 78.1086 73.6196 78.1479C73.5728 78.1873 73.5187 78.217 73.4605 78.2355C73.4022 78.254 73.3408 78.2608 73.2799 78.2555C73.219 78.2502 73.1597 78.233 73.1055 78.2048C73.0512 78.1766 73.0031 78.138 72.9638 78.0912L69.3749 73.8149C69.2957 73.7205 69.2572 73.5985 69.2678 73.4757C69.2784 73.3529 69.3374 73.2394 69.4317 73.16H69.4326ZM68.9396 77.0512C69.0406 76.9805 69.1656 76.9529 69.287 76.9744C69.4084 76.9958 69.5163 77.0646 69.587 77.1656L71.1889 79.4512C71.2596 79.5521 71.2874 79.677 71.2661 79.7984C71.2448 79.9197 71.1762 80.0277 71.0754 80.0986C70.9745 80.1693 70.8496 80.1971 70.7282 80.1758C70.6068 80.1545 70.4988 80.0859 70.428 79.9851L68.8261 77.6995C68.7554 77.5986 68.7276 77.4737 68.7489 77.3523C68.7702 77.2309 68.8387 77.1229 68.9396 77.0521V77.0512ZM65.1163 76.1823C65.2232 76.1206 65.3501 76.1039 65.4693 76.1359C65.5884 76.1678 65.69 76.2457 65.7517 76.3526L68.5424 81.186C68.604 81.2929 68.6208 81.4198 68.5888 81.539C68.5569 81.6581 68.479 81.7597 68.3721 81.8214C68.2653 81.8831 68.1384 81.8998 68.0192 81.8678C67.9001 81.8359 67.7985 81.758 67.7368 81.6512L64.9461 76.8177C64.8844 76.7108 64.8677 76.5839 64.8996 76.4647C64.9316 76.3456 65.0095 76.244 65.1163 76.1823ZM63.9563 79.9293C64.0681 79.8773 64.1959 79.8718 64.3117 79.914C64.4276 79.9562 64.5219 80.0427 64.574 80.1544L65.7535 82.6837C65.8055 82.7955 65.811 82.9233 65.7688 83.0391C65.7266 83.155 65.6401 83.2493 65.5284 83.3014C65.4166 83.3534 65.2888 83.3589 65.173 83.3167C65.0572 83.2744 64.9629 83.188 64.9107 83.0763L63.7312 80.547C63.6792 80.4352 63.6737 80.3074 63.7159 80.1915C63.7581 80.0757 63.8446 79.9814 63.9563 79.9293ZM60.3405 78.4074C60.3979 78.3865 60.4589 78.3771 60.5199 78.3798C60.581 78.3825 60.6409 78.3971 60.6963 78.423C60.7517 78.4488 60.8014 78.4853 60.8427 78.5303C60.8839 78.5754 60.9159 78.6281 60.9368 78.6856L62.8456 83.9321C62.8665 83.9895 62.8759 84.0505 62.8733 84.1115C62.8706 84.1726 62.8559 84.2325 62.8301 84.2878C62.8043 84.3432 62.7678 84.393 62.7227 84.4342C62.6777 84.4755 62.6249 84.5075 62.5675 84.5284C62.5101 84.5493 62.4491 84.5587 62.3881 84.556C62.327 84.5533 62.2671 84.5387 62.2117 84.5128C62.1563 84.487 62.1066 84.4505 62.0653 84.4055C62.0241 84.3604 61.9921 84.3076 61.9712 84.2502L60.0624 79.0037C60.0415 78.9463 60.0321 78.8853 60.0347 78.8243C60.0374 78.7632 60.0521 78.7033 60.0779 78.6479C60.1037 78.5926 60.1402 78.5428 60.1853 78.5016C60.2303 78.4603 60.2831 78.4283 60.3405 78.4074ZM58.547 81.8977C58.6661 81.8658 58.7929 81.8825 58.8996 81.9441C59.0063 82.0057 59.0843 82.1071 59.1163 82.226L59.8391 84.9219C59.855 84.9809 59.8591 85.0424 59.8512 85.103C59.8433 85.1636 59.8236 85.2221 59.7931 85.275C59.7626 85.328 59.722 85.3744 59.6735 85.4116C59.6251 85.4489 59.5698 85.4762 59.5107 85.4921C59.4517 85.508 59.3902 85.5121 59.3296 85.5042C59.269 85.4963 59.2105 85.4766 59.1576 85.4461C59.1046 85.4156 59.0582 85.3749 59.021 85.3265C58.9837 85.278 58.9564 85.2227 58.9405 85.1637L58.2177 82.4679C58.2018 82.4089 58.1977 82.3473 58.2056 82.2867C58.2135 82.2261 58.2332 82.1677 58.2637 82.1147C58.2942 82.0618 58.3349 82.0153 58.3833 81.9781C58.4318 81.9409 58.4871 81.9135 58.5461 81.8977H58.547ZM55.2493 79.7739C55.3095 79.7632 55.3712 79.7645 55.4309 79.7776C55.4906 79.7908 55.5471 79.8155 55.5972 79.8505C55.6473 79.8855 55.69 79.93 55.7229 79.9815C55.7558 80.033 55.7782 80.0905 55.7889 80.1507L56.7573 85.6484C56.7784 85.7696 56.7506 85.8942 56.6799 85.995C56.6093 86.0958 56.5017 86.1645 56.3805 86.186C56.3203 86.1968 56.2587 86.1955 56.199 86.1824C56.1393 86.1692 56.0828 86.1445 56.0327 86.1095C55.9826 86.0745 55.9398 86.03 55.9069 85.9785C55.8741 85.927 55.8516 85.8695 55.841 85.8093L54.8726 80.3126C54.8619 80.2524 54.8631 80.1907 54.8763 80.131C54.8894 80.0713 54.9142 80.0148 54.9492 79.9647C54.9842 79.9146 55.0287 79.8719 55.0802 79.839C55.1317 79.8061 55.1892 79.7837 55.2493 79.773V79.7739ZM52.8791 82.8986C53.002 82.888 53.124 82.9267 53.2184 83.006C53.3127 83.0854 53.3717 83.199 53.3824 83.3219L53.6252 86.1014C53.6357 86.2242 53.5971 86.3463 53.5177 86.4406C53.4383 86.535 53.3248 86.594 53.2019 86.6046C53.0792 86.6152 52.9573 86.5767 52.863 86.4975C52.7686 86.4184 52.7095 86.305 52.6986 86.1823L52.4559 83.4028C52.4505 83.3419 52.4572 83.2805 52.4756 83.2222C52.4939 83.1639 52.5236 83.1098 52.563 83.0629C52.6023 83.0161 52.6504 82.9775 52.7047 82.9493C52.7589 82.9211 52.8182 82.9039 52.8791 82.8986ZM49.9982 80.2344C50.1215 80.2344 50.2398 80.2834 50.3271 80.3706C50.4143 80.4579 50.4633 80.5762 50.4633 80.6995V86.2809C50.4633 86.4043 50.4143 86.5226 50.3271 86.6098C50.2398 86.697 50.1215 86.746 49.9982 86.746C49.8748 86.746 49.7565 86.697 49.6693 86.6098C49.5821 86.5226 49.5331 86.4043 49.5331 86.2809V80.6995C49.5331 80.5762 49.5821 80.4579 49.6693 80.3706C49.7565 80.2834 49.8748 80.2344 49.9982 80.2344ZM47.12 82.8995C47.2429 82.9104 47.3564 82.9696 47.4356 83.0642C47.5148 83.1587 47.5532 83.2809 47.5424 83.4037L47.2996 86.1832C47.2887 86.3059 47.2296 86.4193 47.1353 86.4985C47.0409 86.5776 46.919 86.6162 46.7963 86.6056C46.6735 86.5949 46.5599 86.5359 46.4805 86.4416C46.4011 86.3472 46.3625 86.2252 46.3731 86.1023L46.6159 83.3228C46.6265 83.1999 46.6855 83.0863 46.7799 83.007C46.8742 82.9276 46.9963 82.889 47.1191 82.8995H47.12ZM44.7507 79.773C44.8109 79.7837 44.8684 79.8061 44.9199 79.839C44.9714 79.8719 45.0159 79.9146 45.0509 79.9647C45.0859 80.0148 45.1107 80.0713 45.1238 80.131C45.137 80.1907 45.1382 80.2524 45.1275 80.3126L44.1563 85.8102C44.1348 85.9316 44.066 86.0394 43.965 86.11C43.864 86.1807 43.7391 86.2083 43.6177 86.187C43.5576 86.1764 43.5001 86.1541 43.4485 86.1213C43.397 86.0885 43.3524 86.0459 43.3173 85.9959C43.2823 85.9459 43.2574 85.8894 43.2441 85.8298C43.2309 85.7702 43.2295 85.7085 43.24 85.6484L44.2112 80.1507C44.2218 80.0904 44.2441 80.0328 44.277 79.9812C44.3098 79.9296 44.3525 79.885 44.4026 79.8499C44.4527 79.8148 44.5093 79.79 44.569 79.7768C44.6288 79.7636 44.6905 79.7623 44.7507 79.773ZM41.4512 81.8995C41.5103 81.9153 41.5657 81.9426 41.6143 81.9798C41.6628 82.017 41.7036 82.0634 41.7341 82.1163C41.7647 82.1693 41.7846 82.2278 41.7925 82.2884C41.8005 82.3491 41.7964 82.4107 41.7805 82.4698L41.0577 85.1656C41.0257 85.2846 40.9477 85.386 40.841 85.4475C40.7343 85.5091 40.6075 85.5258 40.4884 85.4939C40.4293 85.4782 40.3739 85.4509 40.3254 85.4137C40.2768 85.3765 40.2361 85.3301 40.2055 85.2771C40.1749 85.2242 40.1551 85.1657 40.1471 85.105C40.1391 85.0444 40.1432 84.9828 40.1591 84.9237L40.8819 82.2279C40.8978 82.1689 40.9251 82.1136 40.9623 82.0651C40.9996 82.0167 41.046 81.976 41.099 81.9456C41.1519 81.9151 41.2104 81.8953 41.271 81.8874C41.3316 81.8795 41.3931 81.8836 41.4521 81.8995H41.4512ZM39.6587 78.4112C39.7744 78.4533 39.8687 78.5397 39.9208 78.6513C39.973 78.7629 39.9787 78.8907 39.9368 79.0065L38.028 84.2521C38.0071 84.3095 37.9751 84.3623 37.9338 84.4073C37.8926 84.4524 37.8428 84.4889 37.7874 84.5147C37.7321 84.5405 37.6721 84.5552 37.6111 84.5579C37.5501 84.5605 37.4891 84.5511 37.4317 84.5302C37.3742 84.5093 37.3215 84.4774 37.2764 84.4361C37.2314 84.3948 37.1949 84.3451 37.1691 84.2897C37.1432 84.2343 37.1286 84.1744 37.1259 84.1134C37.1232 84.0523 37.1326 83.9914 37.1535 83.9339L39.0624 78.6893C39.0832 78.6319 39.1152 78.5791 39.1565 78.5341C39.1978 78.489 39.2475 78.4525 39.3029 78.4267C39.3583 78.4009 39.4182 78.3862 39.4792 78.3835C39.5403 78.3809 39.6012 78.3902 39.6587 78.4112ZM36.0419 79.9312C36.1536 79.9833 36.2401 80.0776 36.2823 80.1934C36.3245 80.3092 36.319 80.4371 36.267 80.5488L35.0875 83.0791C35.0352 83.1906 34.9408 83.2769 34.825 83.3189C34.7092 83.3609 34.5815 83.3553 34.4698 83.3032C34.3581 83.2511 34.2716 83.1568 34.2294 83.041C34.1872 82.9252 34.1927 82.7973 34.2447 82.6856L35.4242 80.1553C35.4765 80.0438 35.5709 79.9575 35.6867 79.9155C35.8025 79.8735 35.9302 79.8791 36.0419 79.9312ZM34.8819 76.1842C34.9887 76.2459 35.0667 76.3474 35.0986 76.4666C35.1305 76.5857 35.1138 76.7127 35.0521 76.8195L32.2614 81.653C32.1998 81.7598 32.0982 81.8378 31.979 81.8697C31.8599 81.9016 31.7329 81.8849 31.6261 81.8232C31.5193 81.7616 31.4413 81.66 31.4094 81.5408C31.3775 81.4217 31.3942 81.2947 31.4559 81.1879L34.2466 76.3544C34.3082 76.2476 34.4098 76.1696 34.529 76.1377C34.6481 76.1058 34.7751 76.1225 34.8819 76.1842ZM31.0587 77.0539C31.1595 77.1248 31.2281 77.2328 31.2493 77.3542C31.2706 77.4756 31.2429 77.6004 31.1721 77.7014L29.5703 79.987C29.4994 80.0878 29.3914 80.1564 29.27 80.1777C29.1486 80.1989 29.0238 80.1712 28.9228 80.1005C28.822 80.0296 28.7534 79.9216 28.7321 79.8002C28.7109 79.6788 28.7386 79.5539 28.8093 79.453L30.4112 77.1674C30.4821 77.0666 30.5901 76.998 30.7114 76.9767C30.8328 76.9555 30.9577 76.9832 31.0587 77.0539ZM30.5656 73.1609C30.6601 73.2402 30.7192 73.3536 30.73 73.4764C30.7408 73.5992 30.7024 73.7213 30.6233 73.8158L27.0354 78.0912C26.9562 78.1856 26.8427 78.2447 26.7199 78.2555C26.5971 78.2663 26.475 78.228 26.3805 78.1488C26.2861 78.0696 26.227 77.9561 26.2161 77.8333C26.2053 77.7105 26.2437 77.5885 26.3228 77.4939L29.9107 73.2177C29.9901 73.1234 30.1037 73.0644 30.2264 73.0538C30.3492 73.0431 30.4712 73.0817 30.5656 73.1609ZM26.6475 73.3525C26.7347 73.4398 26.7837 73.5581 26.7837 73.6814C26.7837 73.8047 26.7347 73.923 26.6475 74.0102L24.6745 75.9842C24.6313 76.0275 24.5799 76.0619 24.5234 76.0853C24.4669 76.1088 24.4063 76.1208 24.3452 76.1208C24.284 76.1208 24.2234 76.1088 24.1669 76.0853C24.1104 76.0619 24.0591 76.0275 24.0159 75.9842C23.9725 75.941 23.9382 75.8896 23.9147 75.8331C23.8913 75.7766 23.8792 75.7161 23.8792 75.6549C23.8792 75.5937 23.8913 75.5331 23.9147 75.4766C23.9382 75.4201 23.9725 75.3688 24.0159 75.3256L25.9898 73.3535C26.077 73.2663 26.1953 73.2173 26.3186 73.2173C26.442 73.2173 26.5603 73.2663 26.6475 73.3535V73.3525ZM22.947 68.9414C22.9821 68.9915 23.007 69.048 23.0203 69.1076C23.0335 69.1673 23.0349 69.2291 23.0243 69.2893C23.0136 69.3495 22.9912 69.4071 22.9584 69.4586C22.9255 69.5102 22.8827 69.5547 22.8326 69.5898L20.547 71.1916C20.446 71.2622 20.321 71.2899 20.1996 71.2684C20.0782 71.247 19.9703 71.1782 19.8996 71.0772C19.8289 70.9763 19.8011 70.8514 19.8224 70.73C19.8436 70.6086 19.9122 70.5006 20.0131 70.4298L22.2986 68.8279C22.3996 68.7572 22.5245 68.7294 22.6459 68.7507C22.7672 68.772 22.8752 68.8406 22.9461 68.9414H22.947ZM23.8159 65.1181C23.8775 65.225 23.8942 65.3519 23.8623 65.4711C23.8304 65.5902 23.7525 65.6918 23.6456 65.7535L18.8121 68.5442C18.7053 68.6059 18.5784 68.6226 18.4592 68.5906C18.3401 68.5587 18.2385 68.4808 18.1768 68.3739C18.1151 68.2671 18.0984 68.1402 18.1303 68.021C18.1622 67.9019 18.2402 67.8003 18.347 67.7386L23.1805 64.9479C23.2873 64.8862 23.4143 64.8695 23.5334 64.9014C23.6526 64.9334 23.7542 65.0113 23.8159 65.1181ZM20.0689 63.9581C20.1209 64.0699 20.1264 64.1977 20.0841 64.3136C20.0419 64.4294 19.9555 64.5237 19.8438 64.5758L17.3145 65.7553C17.2027 65.8073 17.0749 65.8128 16.959 65.7706C16.8432 65.7284 16.7489 65.6419 16.6968 65.5302C16.6448 65.4185 16.6393 65.2906 16.6815 65.1748C16.7237 65.059 16.8102 64.9647 16.9219 64.9125L19.4512 63.733C19.563 63.681 19.6908 63.6755 19.8066 63.7177C19.9224 63.76 20.0168 63.8464 20.0689 63.9581ZM21.5889 60.3414C21.6308 60.4572 21.6251 60.585 21.5729 60.6966C21.5208 60.8082 21.4265 60.8946 21.3107 60.9367L16.0661 62.8465C15.9503 62.8884 15.8225 62.8827 15.7109 62.8306C15.5993 62.7784 15.5129 62.6841 15.4707 62.5684C15.4288 62.4526 15.4344 62.325 15.4863 62.2134C15.5383 62.1018 15.6324 62.0154 15.748 61.973L20.9926 60.0632C21.05 60.0423 21.111 60.033 21.172 60.0356C21.2331 60.0383 21.293 60.0529 21.3484 60.0788C21.4037 60.1046 21.4535 60.1411 21.4948 60.1862C21.536 60.2312 21.568 60.284 21.5889 60.3414ZM18.1005 58.5488C18.1323 58.6679 18.1157 58.7947 18.0541 58.9014C17.9925 59.0081 17.8911 59.0861 17.7721 59.1181L15.0754 59.8409C14.9564 59.8728 14.8296 59.8561 14.7228 59.7945C14.6161 59.7329 14.5381 59.6315 14.5061 59.5125C14.4902 59.4535 14.4861 59.392 14.494 59.3314C14.5019 59.2708 14.5216 59.2123 14.5521 59.1594C14.5826 59.1064 14.6232 59.06 14.6717 59.0228C14.7201 58.9855 14.7754 58.9582 14.8345 58.9423L17.5303 58.2195C17.5893 58.2036 17.6508 58.1995 17.7114 58.2074C17.772 58.2153 17.8305 58.2351 17.8834 58.2655C17.9364 58.296 17.9828 58.3367 18.0201 58.3851C18.0573 58.4336 18.0846 58.4889 18.1005 58.5479V58.5488ZM20.227 55.2493C20.2377 55.3095 20.2364 55.3713 20.2232 55.431C20.2101 55.4908 20.1852 55.5473 20.1501 55.5974C20.115 55.6475 20.0704 55.6902 20.0188 55.7231C19.9672 55.7559 19.9096 55.7783 19.8493 55.7888L14.3517 56.7591C14.2915 56.7698 14.2298 56.7685 14.1701 56.7554C14.1104 56.7423 14.0539 56.7175 14.0038 56.6825C13.9537 56.6475 13.911 56.603 13.8781 56.5515C13.8452 56.5 13.8228 56.4425 13.8121 56.3823C13.8014 56.3221 13.8027 56.2603 13.8159 56.2006C13.8291 56.1409 13.854 56.0843 13.889 56.0342C13.9241 55.9841 13.9687 55.9414 14.0204 55.9085C14.072 55.8757 14.1296 55.8533 14.1898 55.8428L19.6875 54.8726C19.7477 54.8618 19.8093 54.8631 19.869 54.8762C19.9287 54.8894 19.9852 54.9141 20.0353 54.9491C20.0854 54.9841 20.1282 55.0286 20.161 55.0801C20.1939 55.1316 20.2164 55.1891 20.227 55.2493ZM17.1005 52.8809C17.1111 53.0038 17.0724 53.1258 16.9931 53.2202C16.9137 53.3145 16.8001 53.3735 16.6773 53.3842L13.8977 53.627C13.775 53.6375 13.6531 53.599 13.5588 53.5199C13.4644 53.4407 13.4053 53.3273 13.3945 53.2046C13.3836 53.0818 13.422 52.9596 13.5012 52.8651C13.5804 52.7705 13.6939 52.7113 13.8168 52.7005L16.5963 52.4577C16.6572 52.4523 16.7186 52.459 16.7769 52.4774C16.8352 52.4958 16.8893 52.5254 16.9362 52.5648C16.983 52.6041 17.0216 52.6522 17.0498 52.7065C17.078 52.7607 17.0952 52.82 17.1005 52.8809ZM19.7656 50.0019C19.7656 50.1252 19.7166 50.2435 19.6294 50.3307C19.5422 50.418 19.4239 50.467 19.3005 50.467H13.7191C13.5958 50.467 13.4775 50.418 13.3902 50.3307C13.303 50.2435 13.254 50.1252 13.254 50.0019C13.254 49.8785 13.303 49.7602 13.3902 49.673C13.4775 49.5857 13.5958 49.5367 13.7191 49.5367H19.3005C19.4239 49.5367 19.5422 49.5857 19.6294 49.673C19.7166 49.7602 19.7656 49.8785 19.7656 50.0019ZM17.1014 47.1237C17.0962 47.1846 17.0789 47.2439 17.0507 47.2982C17.0226 47.3524 16.9839 47.4006 16.9371 47.4399C16.8903 47.4792 16.8362 47.5089 16.7778 47.5273C16.7195 47.5456 16.6582 47.5523 16.5973 47.547L13.8168 47.3032C13.6939 47.2924 13.5804 47.2332 13.5012 47.1386C13.422 47.0441 13.3836 46.9219 13.3945 46.7991C13.4053 46.6762 13.4646 46.5627 13.5591 46.4835C13.6537 46.4043 13.7758 46.3659 13.8986 46.3767L16.6782 46.6195C16.7391 46.6248 16.7984 46.642 16.8526 46.6702C16.9069 46.6984 16.955 46.737 16.9943 46.7839C17.0337 46.8307 17.0634 46.8848 17.0817 46.9431C17.1001 47.0014 17.1068 47.0628 17.1014 47.1237ZM20.2252 44.7516C20.2036 44.873 20.1348 44.9808 20.0338 45.0514C19.9328 45.1221 19.8079 45.1497 19.6866 45.1284L14.1898 44.1591C14.0685 44.1375 13.9606 44.0687 13.89 43.9677C13.8194 43.8667 13.7917 43.7418 13.8131 43.6205C13.8346 43.4991 13.9034 43.3913 14.0044 43.3207C14.1054 43.25 14.2303 43.2223 14.3517 43.2437L19.8484 44.2121C19.9086 44.2227 19.9661 44.2452 20.0176 44.2781C20.0691 44.3109 20.1136 44.3537 20.1486 44.4038C20.1836 44.4539 20.2084 44.5104 20.2215 44.5701C20.2346 44.6298 20.2359 44.6915 20.2252 44.7516ZM18.1005 41.4549C18.0846 41.5139 18.0573 41.5692 18.0201 41.6176C17.9828 41.6661 17.9364 41.7067 17.8834 41.7372C17.8305 41.7677 17.772 41.7875 17.7114 41.7954C17.6508 41.8033 17.5893 41.7992 17.5303 41.7832L14.8354 41.0614C14.7162 41.0295 14.6146 40.9517 14.5529 40.8449C14.4911 40.7382 14.4743 40.6112 14.5061 40.4921C14.5379 40.3729 14.6158 40.2713 14.7226 40.2096C14.8293 40.1478 14.9562 40.131 15.0754 40.1628L17.7712 40.8846C17.8303 40.9004 17.8857 40.9277 17.9343 40.9649C17.9828 41.0021 18.0235 41.0485 18.0541 41.1015C18.0847 41.1544 18.1046 41.2129 18.1125 41.2735C18.1205 41.3342 18.1164 41.3958 18.1005 41.4549ZM21.5889 39.6614C21.5467 39.7771 21.4603 39.8714 21.3487 39.9236C21.2371 39.9757 21.1094 39.9815 20.9935 39.9395L15.748 38.0307C15.6905 38.0098 15.6378 37.9778 15.5927 37.9366C15.5477 37.8953 15.5112 37.8455 15.4853 37.7902C15.4595 37.7348 15.4448 37.6749 15.4422 37.6138C15.4395 37.5528 15.4489 37.4918 15.4698 37.4344C15.4907 37.377 15.5227 37.3242 15.5639 37.2792C15.6052 37.2341 15.6549 37.1976 15.7103 37.1718C15.7657 37.146 15.8256 37.1313 15.8867 37.1286C15.9477 37.126 16.0087 37.1354 16.0661 37.1563L21.3107 39.0651C21.3682 39.086 21.4209 39.118 21.466 39.1592C21.511 39.2005 21.5475 39.2502 21.5734 39.3056C21.5992 39.361 21.6139 39.4209 21.6165 39.482C21.6192 39.543 21.6098 39.604 21.5889 39.6614ZM20.0689 36.0446C20.0168 36.1564 19.9224 36.2428 19.8066 36.285C19.6908 36.3272 19.563 36.3217 19.4512 36.2698L16.921 35.0902C16.8094 35.0379 16.7232 34.9436 16.6811 34.8278C16.6391 34.712 16.6447 34.5842 16.6968 34.4725C16.7489 34.3608 16.8432 34.2744 16.959 34.2322C17.0749 34.19 17.2027 34.1954 17.3145 34.2474L19.8447 35.427C19.9562 35.4792 20.0425 35.5736 20.0845 35.6894C20.1266 35.8052 20.1209 35.933 20.0689 36.0446ZM23.8159 34.8856C23.7542 34.9924 23.6526 35.0703 23.5334 35.1023C23.4143 35.1342 23.2873 35.1175 23.1805 35.0558L18.347 32.2651C18.2402 32.2034 18.1622 32.1018 18.1303 31.9827C18.0984 31.8635 18.1151 31.7366 18.1768 31.6298C18.2385 31.5229 18.3401 31.445 18.4592 31.4131C18.5784 31.3811 18.7053 31.3978 18.8121 31.4595L23.6456 34.2502C23.7525 34.3119 23.8304 34.4135 23.8623 34.5326C23.8942 34.6518 23.8775 34.7787 23.8159 34.8856ZM22.947 31.0614C22.9119 31.1114 22.8673 31.1541 22.8157 31.1869C22.7641 31.2197 22.7066 31.242 22.6464 31.2525C22.5861 31.2631 22.5244 31.2616 22.4648 31.2483C22.4051 31.235 22.3487 31.21 22.2986 31.1749L20.0131 29.573C19.9122 29.5021 19.8436 29.3942 19.8224 29.2728C19.8011 29.1514 19.8289 29.0265 19.8996 28.9256C19.9704 28.8247 20.0784 28.7561 20.1998 28.7349C20.3212 28.7136 20.4461 28.7414 20.547 28.8121L22.8326 30.413C22.8827 30.448 22.9255 30.4926 22.9584 30.5442C22.9912 30.5957 23.0136 30.6532 23.0243 30.7135C23.0349 30.7737 23.0335 30.8354 23.0203 30.8951C23.007 30.9548 22.9821 31.0113 22.947 31.0614ZM26.8391 30.5684C26.7599 30.6628 26.6464 30.7219 26.5236 30.7327C26.4008 30.7435 26.2787 30.7052 26.1842 30.626L21.9089 27.0381C21.8144 26.9589 21.7553 26.8454 21.7445 26.7226C21.7337 26.5998 21.7721 26.4778 21.8512 26.3832C21.9304 26.2888 22.0439 26.2297 22.1667 26.2189C22.2895 26.2081 22.4116 26.2464 22.5061 26.3256L26.7824 29.9135C26.8767 29.9928 26.9356 30.1064 26.9462 30.2292C26.9569 30.352 26.9184 30.474 26.8391 30.5684ZM26.6475 26.6502C26.5603 26.7374 26.442 26.7864 26.3186 26.7864C26.1953 26.7864 26.077 26.7374 25.9898 26.6502L24.0159 24.6772C23.9725 24.634 23.9382 24.5827 23.9147 24.5262C23.8913 24.4697 23.8792 24.4091 23.8792 24.3479C23.8792 24.2867 23.8913 24.2261 23.9147 24.1696C23.9382 24.1131 23.9725 24.0618 24.0159 24.0186C24.0591 23.9753 24.1104 23.9409 24.1669 23.9175C24.2234 23.894 24.284 23.882 24.3452 23.882C24.4063 23.882 24.4669 23.894 24.5234 23.9175C24.5799 23.9409 24.6313 23.9753 24.6745 24.0186L26.6466 25.9925C26.7338 26.0798 26.7827 26.1981 26.7827 26.3214C26.7827 26.4447 26.7338 26.563 26.6466 26.6502H26.6475ZM30.5675 26.8418C30.5207 26.8812 30.4666 26.911 30.4084 26.9295C30.3501 26.9479 30.2887 26.9547 30.2278 26.9494C30.1669 26.9442 30.1076 26.9269 30.0534 26.8987C29.9991 26.8706 29.951 26.8319 29.9117 26.7851L26.3228 22.5098C26.2835 22.463 26.2537 22.4089 26.2352 22.3506C26.2168 22.2923 26.21 22.231 26.2152 22.1701C26.2205 22.1092 26.2377 22.0499 26.2659 21.9957C26.2941 21.9414 26.3328 21.8933 26.3796 21.8539C26.4264 21.8146 26.4805 21.7849 26.5388 21.7665C26.5972 21.7481 26.6585 21.7414 26.7194 21.7468C26.7804 21.7521 26.8396 21.7695 26.8938 21.7977C26.948 21.826 26.9962 21.8647 27.0354 21.9116L30.6242 26.187C30.7034 26.2815 30.7417 26.4036 30.7309 26.5263C30.7201 26.6491 30.661 26.7626 30.5666 26.8418H30.5675ZM31.0587 22.9507C30.9576 23.0213 30.8326 23.0489 30.7112 23.0275C30.5898 23.006 30.4819 22.9373 30.4112 22.8363L28.8093 20.5507C28.7386 20.4498 28.7109 20.3249 28.7321 20.2035C28.7534 20.0821 28.822 19.9741 28.9228 19.9032C29.0238 19.8325 29.1486 19.8048 29.27 19.826C29.3914 19.8473 29.4994 19.9159 29.5703 20.0167L31.1721 22.3023C31.2073 22.3523 31.2323 22.4088 31.2456 22.4684C31.2589 22.5281 31.2603 22.5898 31.2498 22.65C31.2393 22.7102 31.217 22.7678 31.1842 22.8194C31.1514 22.871 31.1087 22.9156 31.0587 22.9507ZM34.8828 23.8195C34.776 23.8812 34.6491 23.8979 34.5299 23.866C34.4108 23.8341 34.3092 23.7561 34.2475 23.6493L31.4568 18.8158C31.3951 18.709 31.3784 18.582 31.4103 18.4629C31.4422 18.3437 31.5202 18.2421 31.627 18.1805C31.7338 18.1188 31.8608 18.1021 31.98 18.134C32.0991 18.1659 32.2007 18.2439 32.2624 18.3507L35.0531 23.1842C35.1147 23.291 35.1315 23.418 35.0995 23.5371C35.0676 23.6563 34.9897 23.7578 34.8828 23.8195ZM36.0419 20.0725C35.9301 20.1245 35.8023 20.13 35.6865 20.0878C35.5707 20.0456 35.4763 19.9591 35.4242 19.8474L34.2447 17.3181C34.1927 17.2064 34.1872 17.0785 34.2294 16.9627C34.2716 16.8469 34.3581 16.7526 34.4698 16.7005C34.5816 16.6485 34.7094 16.643 34.8252 16.6852C34.9411 16.7274 35.0354 16.8139 35.0875 16.9256L36.267 19.4549C36.319 19.5666 36.3245 19.6945 36.2823 19.8103C36.2401 19.9261 36.1536 20.0204 36.0419 20.0725ZM39.6587 21.5944C39.6012 21.6153 39.5403 21.6247 39.4792 21.622C39.4182 21.6194 39.3583 21.6047 39.3029 21.5789C39.2475 21.5531 39.1978 21.5166 39.1565 21.4715C39.1152 21.4264 39.0832 21.3737 39.0624 21.3163L37.1535 16.0698C37.1326 16.0123 37.1232 15.9514 37.1259 15.8903C37.1286 15.8293 37.1432 15.7694 37.1691 15.714C37.1949 15.6586 37.2314 15.6089 37.2764 15.5676C37.3215 15.5263 37.3742 15.4944 37.4317 15.4735C37.4891 15.4526 37.5501 15.4432 37.6111 15.4458C37.6721 15.4485 37.7321 15.4632 37.7874 15.489C37.8428 15.5148 37.8926 15.5513 37.9338 15.5964C37.9751 15.6414 38.0071 15.6942 38.028 15.7516L39.9368 20.9981C39.9577 21.0555 39.9671 21.1165 39.9644 21.1776C39.9618 21.2386 39.9471 21.2985 39.9213 21.3539C39.8954 21.4093 39.8589 21.459 39.8139 21.5003C39.7688 21.5415 39.7161 21.5735 39.6587 21.5944ZM41.4531 18.1032C41.3941 18.1192 41.3325 18.1233 41.2719 18.1154C41.2113 18.1075 41.1529 18.0877 41.0999 18.0572C41.047 18.0267 41.0005 17.9861 40.9633 17.9376C40.926 17.8892 40.8987 17.8339 40.8828 17.7749L40.16 15.0791C40.1441 15.0201 40.14 14.9585 40.1479 14.8979C40.1558 14.8373 40.1756 14.7789 40.2061 14.7259C40.2366 14.6729 40.2772 14.6265 40.3256 14.5893C40.3741 14.552 40.4294 14.5247 40.4884 14.5088C40.5474 14.4929 40.609 14.4888 40.6696 14.4967C40.7302 14.5046 40.7886 14.5244 40.8416 14.5549C40.8945 14.5853 40.941 14.626 40.9782 14.6744C41.0155 14.7229 41.0428 14.7782 41.0586 14.8372L41.7814 17.5339C41.8133 17.653 41.7966 17.7798 41.735 17.8865C41.6735 17.9933 41.5721 18.0712 41.4531 18.1032ZM44.7489 20.2279C44.6887 20.2386 44.627 20.2374 44.5673 20.2242C44.5077 20.2111 44.4512 20.1863 44.401 20.1513C44.3509 20.1163 44.3082 20.0718 44.2753 20.0203C44.2424 19.9688 44.22 19.9113 44.2093 19.8512L43.241 14.3535C43.2199 14.2322 43.2477 14.1076 43.3183 14.0068C43.3889 13.906 43.4966 13.8374 43.6177 13.8158C43.6779 13.8051 43.7396 13.8063 43.7993 13.8195C43.8589 13.8326 43.9155 13.8574 43.9656 13.8924C44.0157 13.9274 44.0584 13.9719 44.0913 14.0234C44.1242 14.0749 44.1466 14.1324 44.1573 14.1925L45.1256 19.6893C45.1363 19.7495 45.1351 19.8111 45.122 19.8708C45.1088 19.9305 45.0841 19.987 45.0491 20.0371C45.0141 20.0872 44.9696 20.13 44.918 20.1629C44.8665 20.1957 44.8091 20.2182 44.7489 20.2288V20.2279ZM47.12 17.1032C47.0591 17.1086 46.9978 17.1019 46.9395 17.0835C46.8811 17.0652 46.827 17.0355 46.7802 16.9962C46.7334 16.9568 46.6948 16.9087 46.6666 16.8544C46.6384 16.8002 46.6211 16.7409 46.6159 16.68L46.3731 13.9005C46.3625 13.7776 46.4011 13.6556 46.4805 13.5612C46.5599 13.4668 46.6735 13.4078 46.7963 13.3972C46.9192 13.3866 47.0412 13.4253 47.1356 13.5046C47.2299 13.584 47.2889 13.6976 47.2996 13.8205L47.5424 16.5991C47.5532 16.7219 47.5148 16.8441 47.4356 16.9386C47.3564 17.0332 47.2429 17.0924 47.12 17.1032Z" fill="white"/>
<path d="M46.8791 46.3834L78.1665 26.1973L49.8242 50.0382L46.8791 46.3834Z" fill="#ED6C60"/>
<path d="M49.8233 50.0371L78.1675 26.2046L52.8149 53.7274L49.8233 50.0371Z" fill="#B73C2F"/>
<path d="M21.9359 73.5015L46.8754 46.3815L49.8242 50.0373L21.9359 73.5015Z" fill="white"/>
<path d="M21.935 73.4977L49.8233 50.0371L52.8187 53.7303L21.935 73.4977Z" fill="#C7C7C7"/>
</svg>
