<svg width="30" height="30" viewBox="0 0 30 30" fill="none" xmlns="http://www.w3.org/2000/svg">
<path fill-rule="evenodd" clip-rule="evenodd" d="M14.7891 1C22.521 1 28.7891 7.26801 28.7891 15C28.7891 22.732 22.521 29 14.7891 29C7.05708 29 0.789062 22.732 0.789062 15C0.789062 7.26801 7.05708 1 14.7891 1ZM18.5257 4.17131C16.1704 3.35871 13.3344 3.90702 11.7626 5.84021C9.17073 9.02805 17.5 9.58466 17.5 15C17.5 20.1881 10.4921 21.2352 11.8784 23.9647C13.0233 26.2191 16.195 26.6464 18.5809 25.8095C23.0422 24.2446 26.2412 19.9959 26.2412 15C26.2412 9.98355 23.0158 5.72043 18.5257 4.17131Z" fill="black"/>
</svg>
