<svg width="256" height="256" viewBox="0 0 256 256" fill="none" xmlns="http://www.w3.org/2000/svg">
<rect width="256" height="256" rx="49" fill="white"/>
<path fill-rule="evenodd" clip-rule="evenodd" d="M190.989 55.0018C193.194 55.0018 194.982 53.2106 194.982 51.0009C194.982 48.7913 193.194 47 190.989 47C188.783 47 186.995 48.7913 186.995 51.0009C186.995 53.2106 188.783 55.0018 190.989 55.0018ZM144.105 70.8573C144.105 65.8419 141.183 63.6681 138.521 62.7201C134.751 62.1264 130.886 61.8182 126.949 61.8182C86.1081 61.8182 53 94.9898 53 135.909C53 176.828 86.1081 210 126.949 210C167.79 210 200.898 176.828 200.898 135.909C200.875 135.686 200.778 135.309 200.654 134.822C200.143 132.827 199.164 129.005 200.898 126.574C203.054 123.549 203.56 119.757 202.377 117.238C199.863 113.237 195.869 111.755 188.179 111.311C180.488 110.866 176.311 102.658 177.974 97.3818C178.01 97.268 178.044 97.1577 178.078 97.0509L178.085 97.0277C178.876 94.5119 179.076 93.8772 180.784 91.7509C185.664 85.6755 185.473 81.5493 182.115 77.3773C178.417 72.7836 169.396 70.2376 163.184 77.97C160.364 81.4808 155.199 82.8287 150.76 81.0818C146.619 79.4518 144.105 75.5666 144.105 70.8573ZM197.94 83.7491C200.717 83.7491 202.968 81.4934 202.968 78.7109C202.968 75.9284 200.717 73.6727 197.94 73.6727C195.163 73.6727 192.911 75.9284 192.911 78.7109C192.911 81.4934 195.163 83.7491 197.94 83.7491ZM183.15 66.8564C183.15 69.6389 180.899 71.8945 178.122 71.8945C175.344 71.8945 173.093 69.6389 173.093 66.8564C173.093 64.0739 175.344 61.8182 178.122 61.8182C180.899 61.8182 183.15 64.0739 183.15 66.8564ZM133.561 86.9396L181.631 160.938C184.577 165.472 181.329 171.473 175.929 171.473H170.932C164.771 171.473 159.051 168.272 155.82 163.016L130.351 121.582C129.195 119.702 126.467 119.703 125.313 121.584L108.576 148.859C107.365 150.834 108.783 153.375 111.096 153.375H123.361C129.216 153.375 134.695 156.269 138.004 161.109L141.917 166.835C143.261 168.801 141.856 171.473 139.476 171.473H80.2671C74.8813 171.473 71.631 165.5 74.5483 160.964L122.14 86.9657C124.812 82.8115 130.87 82.7976 133.561 86.9396ZM197.94 100.345C197.94 104.765 194.364 108.347 189.953 108.347C185.543 108.347 181.967 104.765 181.967 100.345C181.967 95.9262 185.543 92.3436 189.953 92.3436C194.364 92.3436 197.94 95.9262 197.94 100.345ZM155.641 77.8218C160.052 77.8218 163.628 74.2393 163.628 69.82C163.628 65.4007 160.052 61.8182 155.641 61.8182C151.23 61.8182 147.655 65.4007 147.655 69.82C147.655 74.2393 151.23 77.8218 155.641 77.8218Z" fill="#393939"/>
</svg>
