<svg width="30" height="30" viewBox="0 0 30 30" fill="none" xmlns="http://www.w3.org/2000/svg">
<path d="M7 15C7 10.5817 10.5817 7 15 7C19.4183 7 23 10.5817 23 15C23 19.4183 19.4183 23 15 23C10.5817 23 7 19.4183 7 15Z" fill="black"/>
<path d="M13 3C13 1.89543 13.8954 1 15 1C16.1046 1 17 1.89543 17 3C17 4.10457 16.1046 5 15 5C13.8954 5 13 4.10457 13 3Z" fill="black"/>
<path d="M21.5104 6.54492C21.5104 5.44035 22.4058 4.54492 23.5104 4.54492C24.615 4.54492 25.5104 5.44035 25.5104 6.54492C25.5104 7.64949 24.615 8.54492 23.5104 8.54492C22.4058 8.54492 21.5104 7.64949 21.5104 6.54492Z" fill="black"/>
<path d="M21.5245 23.4448C21.5245 22.3403 22.42 21.4448 23.5245 21.4448C24.6291 21.4448 25.5245 22.3403 25.5245 23.4448C25.5245 24.5494 24.6291 25.4448 23.5245 25.4448C22.42 25.4448 21.5245 24.5494 21.5245 23.4448Z" fill="black"/>
<path d="M4.56907 6.45931C4.56907 5.35474 5.4645 4.45931 6.56907 4.45931C7.67364 4.45931 8.56907 5.35474 8.56907 6.45931C8.56907 7.56388 7.67364 8.45931 6.56907 8.45931C5.4645 8.45931 4.56907 7.56388 4.56907 6.45931Z" fill="black"/>
<path d="M4.69535 23.6453C4.69535 22.5407 5.59079 21.6453 6.69535 21.6453C7.79992 21.6453 8.69535 22.5407 8.69535 23.6453C8.69535 24.7499 7.79992 25.6453 6.69535 25.6453C5.59079 25.6453 4.69535 24.7499 4.69535 23.6453Z" fill="black"/>
<path d="M13 27C13 25.8954 13.8954 25 15 25C16.1046 25 17 25.8954 17 27C17 28.1046 16.1046 29 15 29C13.8954 29 13 28.1046 13 27Z" fill="black"/>
<path d="M25 15C25 13.8954 25.8954 13 27 13C28.1046 13 29 13.8954 29 15C29 16.1046 28.1046 17 27 17C25.8954 17 25 16.1046 25 15Z" fill="black"/>
<path d="M1 15C1 13.8954 1.89543 13 3 13C4.10457 13 5 13.8954 5 15C5 16.1046 4.10457 17 3 17C1.89543 17 1 16.1046 1 15Z" fill="black"/>
</svg>
