<svg width="1218" height="256" viewBox="0 0 1218 256" fill="none" xmlns="http://www.w3.org/2000/svg">
<g clip-path="url(#clip0_673_7)">
<path d="M394.75 163.875H362.5L358.062 179H329.125L363.562 87.375H394.438L428.875 179H399.25L394.75 163.875ZM388.812 144.062L378.688 111.125L368.625 144.062H388.812ZM436.438 204.25V112.625H460.25V122.438C463.542 118.312 466.562 115.521 469.312 114.062C473.021 112.104 477.125 111.125 481.625 111.125C490.5 111.125 497.354 114.521 502.188 121.312C507.062 128.104 509.5 136.5 509.5 146.5C509.5 157.542 506.854 165.979 501.562 171.812C496.271 177.604 489.583 180.5 481.5 180.5C477.583 180.5 474 179.833 470.75 178.5C467.542 177.167 464.667 175.188 462.125 172.562V204.25H436.438ZM461.938 146C461.938 151.25 463.042 155.146 465.25 157.688C467.458 160.229 470.25 161.5 473.625 161.5C476.583 161.5 479.062 160.292 481.062 157.875C483.062 155.417 484.062 151.271 484.062 145.438C484.062 140.062 483.021 136.125 480.938 133.625C478.854 131.083 476.312 129.812 473.312 129.812C470.062 129.812 467.354 131.083 465.188 133.625C463.021 136.167 461.938 140.292 461.938 146ZM521.938 112.625H545.75V123.5C548.042 118.792 550.396 115.562 552.812 113.812C555.271 112.021 558.292 111.125 561.875 111.125C565.625 111.125 569.729 112.292 574.188 114.625L566.312 132.75C563.312 131.5 560.938 130.875 559.188 130.875C555.854 130.875 553.271 132.25 551.438 135C548.812 138.875 547.5 146.125 547.5 156.75V179H521.938V112.625ZM575.438 146C575.438 135.875 578.854 127.542 585.688 121C592.521 114.417 601.75 111.125 613.375 111.125C626.667 111.125 636.708 114.979 643.5 122.688C648.958 128.896 651.688 136.542 651.688 145.625C651.688 155.833 648.292 164.208 641.5 170.75C634.75 177.25 625.396 180.5 613.438 180.5C602.771 180.5 594.146 177.792 587.562 172.375C579.479 165.667 575.438 156.875 575.438 146ZM600.938 145.938C600.938 151.854 602.125 156.229 604.5 159.062C606.917 161.896 609.938 163.312 613.562 163.312C617.229 163.312 620.229 161.917 622.562 159.125C624.938 156.333 626.125 151.854 626.125 145.688C626.125 139.938 624.938 135.667 622.562 132.875C620.188 130.042 617.25 128.625 613.75 128.625C610.042 128.625 606.979 130.062 604.562 132.938C602.146 135.771 600.938 140.104 600.938 145.938ZM663.938 112.625H687.625V123.438C691.167 119.021 694.75 115.875 698.375 114C702 112.083 706.417 111.125 711.625 111.125C718.667 111.125 724.167 113.229 728.125 117.438C732.125 121.604 734.125 128.062 734.125 136.812V179H708.562V142.5C708.562 138.333 707.792 135.396 706.25 133.688C704.708 131.938 702.542 131.062 699.75 131.062C696.667 131.062 694.167 132.229 692.25 134.562C690.333 136.896 689.375 141.083 689.375 147.125V179H663.938V112.625ZM751.375 87.375H793.438C801.729 87.375 808.417 88.5 813.5 90.75C818.625 93 822.854 96.2292 826.188 100.438C829.521 104.646 831.938 109.542 833.438 115.125C834.938 120.708 835.688 126.625 835.688 132.875C835.688 142.667 834.562 150.271 832.312 155.688C830.104 161.062 827.021 165.583 823.062 169.25C819.104 172.875 814.854 175.292 810.312 176.5C804.104 178.167 798.479 179 793.438 179H751.375V87.375ZM779.688 108.125V158.188H786.625C792.542 158.188 796.75 157.542 799.25 156.25C801.75 154.917 803.708 152.625 805.125 149.375C806.542 146.083 807.25 140.771 807.25 133.438C807.25 123.729 805.667 117.083 802.5 113.5C799.333 109.917 794.083 108.125 786.75 108.125H779.688ZM922.625 152.125H871.625C872.083 156.208 873.188 159.25 874.938 161.25C877.396 164.125 880.604 165.562 884.562 165.562C887.062 165.562 889.438 164.938 891.688 163.688C893.062 162.896 894.542 161.5 896.125 159.5L921.188 161.812C917.354 168.479 912.729 173.271 907.312 176.188C901.896 179.062 894.125 180.5 884 180.5C875.208 180.5 868.292 179.271 863.25 176.812C858.208 174.312 854.021 170.375 850.688 165C847.396 159.583 845.75 153.229 845.75 145.938C845.75 135.562 849.062 127.167 855.688 120.75C862.354 114.333 871.542 111.125 883.25 111.125C892.75 111.125 900.25 112.562 905.75 115.438C911.25 118.312 915.438 122.479 918.312 127.938C921.188 133.396 922.625 140.5 922.625 149.25V152.125ZM896.75 139.938C896.25 135.021 894.917 131.5 892.75 129.375C890.625 127.25 887.812 126.188 884.312 126.188C880.271 126.188 877.042 127.792 874.625 131C873.083 133 872.104 135.979 871.688 139.938H896.75ZM929.812 160.625L955.062 158.25C956.104 161.25 957.562 163.396 959.438 164.688C961.312 165.979 963.812 166.625 966.938 166.625C970.354 166.625 973 165.896 974.875 164.438C976.333 163.354 977.062 162 977.062 160.375C977.062 158.542 976.104 157.125 974.188 156.125C972.812 155.417 969.167 154.542 963.25 153.5C954.417 151.958 948.271 150.542 944.812 149.25C941.396 147.917 938.5 145.688 936.125 142.562C933.792 139.438 932.625 135.875 932.625 131.875C932.625 127.5 933.896 123.729 936.438 120.562C938.979 117.396 942.479 115.042 946.938 113.5C951.396 111.917 957.375 111.125 964.875 111.125C972.792 111.125 978.625 111.729 982.375 112.938C986.167 114.146 989.312 116.021 991.812 118.562C994.354 121.104 996.458 124.542 998.125 128.875L974 131.25C973.375 129.125 972.333 127.562 970.875 126.562C968.875 125.229 966.458 124.562 963.625 124.562C960.75 124.562 958.646 125.083 957.312 126.125C956.021 127.125 955.375 128.354 955.375 129.812C955.375 131.438 956.208 132.667 957.875 133.5C959.542 134.333 963.167 135.083 968.75 135.75C977.208 136.708 983.5 138.042 987.625 139.75C991.75 141.458 994.896 143.896 997.062 147.062C999.271 150.229 1000.38 153.708 1000.38 157.5C1000.38 161.333 999.208 165.062 996.875 168.688C994.583 172.312 990.938 175.208 985.938 177.375C980.979 179.5 974.208 180.562 965.625 180.562C953.5 180.562 944.854 178.833 939.688 175.375C934.562 171.917 931.271 167 929.812 160.625ZM1013.5 87.375H1038.94V104.688H1013.5V87.375ZM1013.5 112.625H1038.94V179H1013.5V112.625ZM1101.38 112.625H1125.19V175.312L1125.25 178.25C1125.25 182.417 1124.35 186.375 1122.56 190.125C1120.81 193.917 1118.46 196.979 1115.5 199.312C1112.58 201.646 1108.85 203.333 1104.31 204.375C1099.81 205.417 1094.65 205.938 1088.81 205.938C1075.48 205.938 1066.31 203.938 1061.31 199.938C1056.35 195.938 1053.88 190.583 1053.88 183.875C1053.88 183.042 1053.92 181.917 1054 180.5L1078.69 183.312C1079.31 185.604 1080.27 187.188 1081.56 188.062C1083.44 189.354 1085.79 190 1088.62 190C1092.29 190 1095.02 189.021 1096.81 187.062C1098.65 185.104 1099.56 181.688 1099.56 176.812V166.75C1097.06 169.708 1094.56 171.854 1092.06 173.188C1088.15 175.271 1083.92 176.312 1079.38 176.312C1070.5 176.312 1063.33 172.438 1057.88 164.688C1054 159.188 1052.06 151.917 1052.06 142.875C1052.06 132.542 1054.56 124.667 1059.56 119.25C1064.56 113.833 1071.1 111.125 1079.19 111.125C1084.35 111.125 1088.6 112 1091.94 113.75C1095.31 115.5 1098.46 118.396 1101.38 122.438V112.625ZM1077.44 144.812C1077.44 149.604 1078.46 153.167 1080.5 155.5C1082.54 157.792 1085.23 158.938 1088.56 158.938C1091.73 158.938 1094.38 157.75 1096.5 155.375C1098.67 152.958 1099.75 149.333 1099.75 144.5C1099.75 139.667 1098.62 135.979 1096.38 133.438C1094.12 130.854 1091.38 129.562 1088.12 129.562C1084.88 129.562 1082.27 130.75 1080.31 133.125C1078.4 135.458 1077.44 139.354 1077.44 144.812ZM1140.56 112.625H1164.25V123.438C1167.79 119.021 1171.38 115.875 1175 114C1178.62 112.083 1183.04 111.125 1188.25 111.125C1195.29 111.125 1200.79 113.229 1204.75 117.438C1208.75 121.604 1210.75 128.062 1210.75 136.812V179H1185.19V142.5C1185.19 138.333 1184.42 135.396 1182.88 133.688C1181.33 131.938 1179.17 131.062 1176.38 131.062C1173.29 131.062 1170.79 132.229 1168.88 134.562C1166.96 136.896 1166 141.083 1166 147.125V179H1140.56V112.625Z" fill="white"/>
<path fill-rule="evenodd" clip-rule="evenodd" d="M217.135 12.5673C220.605 12.5673 223.418 9.75399 223.418 6.28364C223.418 2.81328 220.605 0 217.135 0C213.664 0 210.851 2.81328 210.851 6.28364C210.851 9.75399 213.664 12.5673 217.135 12.5673ZM143.36 37.4691C143.36 29.5921 138.762 26.1782 134.573 24.6892C128.64 23.7568 122.559 23.2727 116.364 23.2727C52.0978 23.2727 0 75.3705 0 139.636C0 203.902 52.0978 256 116.364 256C180.629 256 232.727 203.902 232.727 139.636C232.691 139.287 232.539 138.693 232.343 137.929C231.539 134.796 230 128.793 232.727 124.975C236.12 120.225 236.916 114.269 235.055 110.313C231.098 104.029 224.815 101.702 212.713 101.004C200.611 100.305 194.038 87.4131 196.655 79.1273C196.711 78.9485 196.766 78.7753 196.818 78.6075L196.83 78.5711C198.075 74.6199 198.388 73.6231 201.076 70.2836C208.756 60.7418 208.455 54.2614 203.171 47.7091C197.353 40.4945 183.156 36.4959 173.382 48.64C168.944 54.1539 160.816 56.2709 153.833 53.5273C147.316 50.9673 143.36 44.8653 143.36 37.4691ZM228.073 57.7164C232.443 57.7164 235.985 54.1737 235.985 49.8036C235.985 45.4336 232.443 41.8909 228.073 41.8909C223.703 41.8909 220.16 45.4336 220.16 49.8036C220.16 54.1737 223.703 57.7164 228.073 57.7164ZM204.8 31.1855C204.8 35.5555 201.257 39.0982 196.887 39.0982C192.517 39.0982 188.975 35.5555 188.975 31.1855C188.975 26.8154 192.517 23.2727 196.887 23.2727C201.257 23.2727 204.8 26.8154 204.8 31.1855ZM126.768 62.7273L202.41 178.946C207.045 186.067 201.934 195.491 193.437 195.491H185.574C175.879 195.491 166.878 190.463 161.795 182.209L121.717 117.135C119.899 114.182 115.605 114.183 113.789 117.138L87.4532 159.975C85.5466 163.076 87.7779 167.067 91.4183 167.067H110.717C119.931 167.067 128.553 171.612 133.759 179.215L139.917 188.206C142.032 191.295 139.82 195.491 136.076 195.491H42.9067C34.4317 195.491 29.3171 186.111 33.9077 178.987L108.797 62.7683C113.001 56.2438 122.534 56.222 126.768 62.7273ZM228.073 83.7818C228.073 90.7225 222.446 96.3491 215.505 96.3491C208.565 96.3491 202.938 90.7225 202.938 83.7818C202.938 76.8411 208.565 71.2145 215.505 71.2145C222.446 71.2145 228.073 76.8411 228.073 83.7818ZM161.513 48.4073C168.453 48.4073 174.08 42.7807 174.08 35.84C174.08 28.8993 168.453 23.2727 161.513 23.2727C154.572 23.2727 148.945 28.8993 148.945 35.84C148.945 42.7807 154.572 48.4073 161.513 48.4073Z" fill="white"/>
</g>
<defs>
<clipPath id="clip0_673_7">
<rect width="1218" height="256" fill="white"/>
</clipPath>
</defs>
</svg>
